%TF.GenerationSoftware,KiCad,Pcbnew,9.0.6*%
%TF.CreationDate,2026-06-30T16:50:24+02:00*%
%TF.ProjectId,ZeroPad,5a65726f-5061-4642-9e6b-696361645f70,rev?*%
%TF.SameCoordinates,Original*%
%TF.FileFunction,Legend,Top*%
%TF.FilePolarity,Positive*%
%FSLAX46Y46*%
G04 Gerber Fmt 4.6, Leading zero omitted, Abs format (unit mm)*
G04 Created by KiCad (PCBNEW 9.0.6) date 2026-06-30 16:50:24*
%MOMM*%
%LPD*%
G01*
G04 APERTURE LIST*
%ADD10C,0.150000*%
%ADD11C,0.101600*%
%ADD12C,0.120000*%
%ADD13C,0.127000*%
%ADD14C,0.200000*%
%ADD15C,0.100000*%
%ADD16C,0.504000*%
G04 APERTURE END LIST*
D10*
X122844819Y-109976666D02*
X122368628Y-110309999D01*
X122844819Y-110548094D02*
X121844819Y-110548094D01*
X121844819Y-110548094D02*
X121844819Y-110167142D01*
X121844819Y-110167142D02*
X121892438Y-110071904D01*
X121892438Y-110071904D02*
X121940057Y-110024285D01*
X121940057Y-110024285D02*
X122035295Y-109976666D01*
X122035295Y-109976666D02*
X122178152Y-109976666D01*
X122178152Y-109976666D02*
X122273390Y-110024285D01*
X122273390Y-110024285D02*
X122321009Y-110071904D01*
X122321009Y-110071904D02*
X122368628Y-110167142D01*
X122368628Y-110167142D02*
X122368628Y-110548094D01*
X122178152Y-109119523D02*
X122844819Y-109119523D01*
X121797200Y-109357618D02*
X122511485Y-109595713D01*
X122511485Y-109595713D02*
X122511485Y-108976666D01*
X119694819Y-109976666D02*
X119218628Y-110309999D01*
X119694819Y-110548094D02*
X118694819Y-110548094D01*
X118694819Y-110548094D02*
X118694819Y-110167142D01*
X118694819Y-110167142D02*
X118742438Y-110071904D01*
X118742438Y-110071904D02*
X118790057Y-110024285D01*
X118790057Y-110024285D02*
X118885295Y-109976666D01*
X118885295Y-109976666D02*
X119028152Y-109976666D01*
X119028152Y-109976666D02*
X119123390Y-110024285D01*
X119123390Y-110024285D02*
X119171009Y-110071904D01*
X119171009Y-110071904D02*
X119218628Y-110167142D01*
X119218628Y-110167142D02*
X119218628Y-110548094D01*
X118694819Y-109071904D02*
X118694819Y-109548094D01*
X118694819Y-109548094D02*
X119171009Y-109595713D01*
X119171009Y-109595713D02*
X119123390Y-109548094D01*
X119123390Y-109548094D02*
X119075771Y-109452856D01*
X119075771Y-109452856D02*
X119075771Y-109214761D01*
X119075771Y-109214761D02*
X119123390Y-109119523D01*
X119123390Y-109119523D02*
X119171009Y-109071904D01*
X119171009Y-109071904D02*
X119266247Y-109024285D01*
X119266247Y-109024285D02*
X119504342Y-109024285D01*
X119504342Y-109024285D02*
X119599580Y-109071904D01*
X119599580Y-109071904D02*
X119647200Y-109119523D01*
X119647200Y-109119523D02*
X119694819Y-109214761D01*
X119694819Y-109214761D02*
X119694819Y-109452856D01*
X119694819Y-109452856D02*
X119647200Y-109548094D01*
X119647200Y-109548094D02*
X119599580Y-109595713D01*
X164109097Y-125600295D02*
X164109097Y-124800295D01*
X164109097Y-124800295D02*
X164299573Y-124800295D01*
X164299573Y-124800295D02*
X164413859Y-124838390D01*
X164413859Y-124838390D02*
X164490049Y-124914580D01*
X164490049Y-124914580D02*
X164528144Y-124990771D01*
X164528144Y-124990771D02*
X164566240Y-125143152D01*
X164566240Y-125143152D02*
X164566240Y-125257438D01*
X164566240Y-125257438D02*
X164528144Y-125409819D01*
X164528144Y-125409819D02*
X164490049Y-125486009D01*
X164490049Y-125486009D02*
X164413859Y-125562200D01*
X164413859Y-125562200D02*
X164299573Y-125600295D01*
X164299573Y-125600295D02*
X164109097Y-125600295D01*
X165328144Y-125600295D02*
X164871001Y-125600295D01*
X165099573Y-125600295D02*
X165099573Y-124800295D01*
X165099573Y-124800295D02*
X165023382Y-124914580D01*
X165023382Y-124914580D02*
X164947192Y-124990771D01*
X164947192Y-124990771D02*
X164871001Y-125028866D01*
X129019819Y-103258333D02*
X129734104Y-103258333D01*
X129734104Y-103258333D02*
X129876961Y-103305952D01*
X129876961Y-103305952D02*
X129972200Y-103401190D01*
X129972200Y-103401190D02*
X130019819Y-103544047D01*
X130019819Y-103544047D02*
X130019819Y-103639285D01*
X130019819Y-102258333D02*
X130019819Y-102829761D01*
X130019819Y-102544047D02*
X129019819Y-102544047D01*
X129019819Y-102544047D02*
X129162676Y-102639285D01*
X129162676Y-102639285D02*
X129257914Y-102734523D01*
X129257914Y-102734523D02*
X129305533Y-102829761D01*
X157051667Y-149873200D02*
X157194524Y-149920819D01*
X157194524Y-149920819D02*
X157432619Y-149920819D01*
X157432619Y-149920819D02*
X157527857Y-149873200D01*
X157527857Y-149873200D02*
X157575476Y-149825580D01*
X157575476Y-149825580D02*
X157623095Y-149730342D01*
X157623095Y-149730342D02*
X157623095Y-149635104D01*
X157623095Y-149635104D02*
X157575476Y-149539866D01*
X157575476Y-149539866D02*
X157527857Y-149492247D01*
X157527857Y-149492247D02*
X157432619Y-149444628D01*
X157432619Y-149444628D02*
X157242143Y-149397009D01*
X157242143Y-149397009D02*
X157146905Y-149349390D01*
X157146905Y-149349390D02*
X157099286Y-149301771D01*
X157099286Y-149301771D02*
X157051667Y-149206533D01*
X157051667Y-149206533D02*
X157051667Y-149111295D01*
X157051667Y-149111295D02*
X157099286Y-149016057D01*
X157099286Y-149016057D02*
X157146905Y-148968438D01*
X157146905Y-148968438D02*
X157242143Y-148920819D01*
X157242143Y-148920819D02*
X157480238Y-148920819D01*
X157480238Y-148920819D02*
X157623095Y-148968438D01*
X157956429Y-148920819D02*
X158194524Y-149920819D01*
X158194524Y-149920819D02*
X158385000Y-149206533D01*
X158385000Y-149206533D02*
X158575476Y-149920819D01*
X158575476Y-149920819D02*
X158813572Y-148920819D01*
X159623095Y-148920819D02*
X159432619Y-148920819D01*
X159432619Y-148920819D02*
X159337381Y-148968438D01*
X159337381Y-148968438D02*
X159289762Y-149016057D01*
X159289762Y-149016057D02*
X159194524Y-149158914D01*
X159194524Y-149158914D02*
X159146905Y-149349390D01*
X159146905Y-149349390D02*
X159146905Y-149730342D01*
X159146905Y-149730342D02*
X159194524Y-149825580D01*
X159194524Y-149825580D02*
X159242143Y-149873200D01*
X159242143Y-149873200D02*
X159337381Y-149920819D01*
X159337381Y-149920819D02*
X159527857Y-149920819D01*
X159527857Y-149920819D02*
X159623095Y-149873200D01*
X159623095Y-149873200D02*
X159670714Y-149825580D01*
X159670714Y-149825580D02*
X159718333Y-149730342D01*
X159718333Y-149730342D02*
X159718333Y-149492247D01*
X159718333Y-149492247D02*
X159670714Y-149397009D01*
X159670714Y-149397009D02*
X159623095Y-149349390D01*
X159623095Y-149349390D02*
X159527857Y-149301771D01*
X159527857Y-149301771D02*
X159337381Y-149301771D01*
X159337381Y-149301771D02*
X159242143Y-149349390D01*
X159242143Y-149349390D02*
X159194524Y-149397009D01*
X159194524Y-149397009D02*
X159146905Y-149492247D01*
X154203333Y-116483319D02*
X153870000Y-116007128D01*
X153631905Y-116483319D02*
X153631905Y-115483319D01*
X153631905Y-115483319D02*
X154012857Y-115483319D01*
X154012857Y-115483319D02*
X154108095Y-115530938D01*
X154108095Y-115530938D02*
X154155714Y-115578557D01*
X154155714Y-115578557D02*
X154203333Y-115673795D01*
X154203333Y-115673795D02*
X154203333Y-115816652D01*
X154203333Y-115816652D02*
X154155714Y-115911890D01*
X154155714Y-115911890D02*
X154108095Y-115959509D01*
X154108095Y-115959509D02*
X154012857Y-116007128D01*
X154012857Y-116007128D02*
X153631905Y-116007128D01*
X154584286Y-115578557D02*
X154631905Y-115530938D01*
X154631905Y-115530938D02*
X154727143Y-115483319D01*
X154727143Y-115483319D02*
X154965238Y-115483319D01*
X154965238Y-115483319D02*
X155060476Y-115530938D01*
X155060476Y-115530938D02*
X155108095Y-115578557D01*
X155108095Y-115578557D02*
X155155714Y-115673795D01*
X155155714Y-115673795D02*
X155155714Y-115769033D01*
X155155714Y-115769033D02*
X155108095Y-115911890D01*
X155108095Y-115911890D02*
X154536667Y-116483319D01*
X154536667Y-116483319D02*
X155155714Y-116483319D01*
X118551667Y-130533200D02*
X118694524Y-130580819D01*
X118694524Y-130580819D02*
X118932619Y-130580819D01*
X118932619Y-130580819D02*
X119027857Y-130533200D01*
X119027857Y-130533200D02*
X119075476Y-130485580D01*
X119075476Y-130485580D02*
X119123095Y-130390342D01*
X119123095Y-130390342D02*
X119123095Y-130295104D01*
X119123095Y-130295104D02*
X119075476Y-130199866D01*
X119075476Y-130199866D02*
X119027857Y-130152247D01*
X119027857Y-130152247D02*
X118932619Y-130104628D01*
X118932619Y-130104628D02*
X118742143Y-130057009D01*
X118742143Y-130057009D02*
X118646905Y-130009390D01*
X118646905Y-130009390D02*
X118599286Y-129961771D01*
X118599286Y-129961771D02*
X118551667Y-129866533D01*
X118551667Y-129866533D02*
X118551667Y-129771295D01*
X118551667Y-129771295D02*
X118599286Y-129676057D01*
X118599286Y-129676057D02*
X118646905Y-129628438D01*
X118646905Y-129628438D02*
X118742143Y-129580819D01*
X118742143Y-129580819D02*
X118980238Y-129580819D01*
X118980238Y-129580819D02*
X119123095Y-129628438D01*
X119456429Y-129580819D02*
X119694524Y-130580819D01*
X119694524Y-130580819D02*
X119885000Y-129866533D01*
X119885000Y-129866533D02*
X120075476Y-130580819D01*
X120075476Y-130580819D02*
X120313572Y-129580819D01*
X121218333Y-130580819D02*
X120646905Y-130580819D01*
X120932619Y-130580819D02*
X120932619Y-129580819D01*
X120932619Y-129580819D02*
X120837381Y-129723676D01*
X120837381Y-129723676D02*
X120742143Y-129818914D01*
X120742143Y-129818914D02*
X120646905Y-129866533D01*
X154203333Y-113943319D02*
X153870000Y-113467128D01*
X153631905Y-113943319D02*
X153631905Y-112943319D01*
X153631905Y-112943319D02*
X154012857Y-112943319D01*
X154012857Y-112943319D02*
X154108095Y-112990938D01*
X154108095Y-112990938D02*
X154155714Y-113038557D01*
X154155714Y-113038557D02*
X154203333Y-113133795D01*
X154203333Y-113133795D02*
X154203333Y-113276652D01*
X154203333Y-113276652D02*
X154155714Y-113371890D01*
X154155714Y-113371890D02*
X154108095Y-113419509D01*
X154108095Y-113419509D02*
X154012857Y-113467128D01*
X154012857Y-113467128D02*
X153631905Y-113467128D01*
X154536667Y-112943319D02*
X155155714Y-112943319D01*
X155155714Y-112943319D02*
X154822381Y-113324271D01*
X154822381Y-113324271D02*
X154965238Y-113324271D01*
X154965238Y-113324271D02*
X155060476Y-113371890D01*
X155060476Y-113371890D02*
X155108095Y-113419509D01*
X155108095Y-113419509D02*
X155155714Y-113514747D01*
X155155714Y-113514747D02*
X155155714Y-113752842D01*
X155155714Y-113752842D02*
X155108095Y-113848080D01*
X155108095Y-113848080D02*
X155060476Y-113895700D01*
X155060476Y-113895700D02*
X154965238Y-113943319D01*
X154965238Y-113943319D02*
X154679524Y-113943319D01*
X154679524Y-113943319D02*
X154584286Y-113895700D01*
X154584286Y-113895700D02*
X154536667Y-113848080D01*
X164059524Y-118180295D02*
X164059524Y-117380295D01*
X164059524Y-117380295D02*
X164250000Y-117380295D01*
X164250000Y-117380295D02*
X164364286Y-117418390D01*
X164364286Y-117418390D02*
X164440476Y-117494580D01*
X164440476Y-117494580D02*
X164478571Y-117570771D01*
X164478571Y-117570771D02*
X164516667Y-117723152D01*
X164516667Y-117723152D02*
X164516667Y-117837438D01*
X164516667Y-117837438D02*
X164478571Y-117989819D01*
X164478571Y-117989819D02*
X164440476Y-118066009D01*
X164440476Y-118066009D02*
X164364286Y-118142200D01*
X164364286Y-118142200D02*
X164250000Y-118180295D01*
X164250000Y-118180295D02*
X164059524Y-118180295D01*
X164821428Y-117456485D02*
X164859524Y-117418390D01*
X164859524Y-117418390D02*
X164935714Y-117380295D01*
X164935714Y-117380295D02*
X165126190Y-117380295D01*
X165126190Y-117380295D02*
X165202381Y-117418390D01*
X165202381Y-117418390D02*
X165240476Y-117456485D01*
X165240476Y-117456485D02*
X165278571Y-117532676D01*
X165278571Y-117532676D02*
X165278571Y-117608866D01*
X165278571Y-117608866D02*
X165240476Y-117723152D01*
X165240476Y-117723152D02*
X164783333Y-118180295D01*
X164783333Y-118180295D02*
X165278571Y-118180295D01*
X154203333Y-119024819D02*
X153870000Y-118548628D01*
X153631905Y-119024819D02*
X153631905Y-118024819D01*
X153631905Y-118024819D02*
X154012857Y-118024819D01*
X154012857Y-118024819D02*
X154108095Y-118072438D01*
X154108095Y-118072438D02*
X154155714Y-118120057D01*
X154155714Y-118120057D02*
X154203333Y-118215295D01*
X154203333Y-118215295D02*
X154203333Y-118358152D01*
X154203333Y-118358152D02*
X154155714Y-118453390D01*
X154155714Y-118453390D02*
X154108095Y-118501009D01*
X154108095Y-118501009D02*
X154012857Y-118548628D01*
X154012857Y-118548628D02*
X153631905Y-118548628D01*
X155155714Y-119024819D02*
X154584286Y-119024819D01*
X154870000Y-119024819D02*
X154870000Y-118024819D01*
X154870000Y-118024819D02*
X154774762Y-118167676D01*
X154774762Y-118167676D02*
X154679524Y-118262914D01*
X154679524Y-118262914D02*
X154584286Y-118310533D01*
X164109097Y-110940295D02*
X164109097Y-110140295D01*
X164109097Y-110140295D02*
X164299573Y-110140295D01*
X164299573Y-110140295D02*
X164413859Y-110178390D01*
X164413859Y-110178390D02*
X164490049Y-110254580D01*
X164490049Y-110254580D02*
X164528144Y-110330771D01*
X164528144Y-110330771D02*
X164566240Y-110483152D01*
X164566240Y-110483152D02*
X164566240Y-110597438D01*
X164566240Y-110597438D02*
X164528144Y-110749819D01*
X164528144Y-110749819D02*
X164490049Y-110826009D01*
X164490049Y-110826009D02*
X164413859Y-110902200D01*
X164413859Y-110902200D02*
X164299573Y-110940295D01*
X164299573Y-110940295D02*
X164109097Y-110940295D01*
X164832906Y-110140295D02*
X165328144Y-110140295D01*
X165328144Y-110140295D02*
X165061478Y-110445057D01*
X165061478Y-110445057D02*
X165175763Y-110445057D01*
X165175763Y-110445057D02*
X165251954Y-110483152D01*
X165251954Y-110483152D02*
X165290049Y-110521247D01*
X165290049Y-110521247D02*
X165328144Y-110597438D01*
X165328144Y-110597438D02*
X165328144Y-110787914D01*
X165328144Y-110787914D02*
X165290049Y-110864104D01*
X165290049Y-110864104D02*
X165251954Y-110902200D01*
X165251954Y-110902200D02*
X165175763Y-110940295D01*
X165175763Y-110940295D02*
X164947192Y-110940295D01*
X164947192Y-110940295D02*
X164871001Y-110902200D01*
X164871001Y-110902200D02*
X164832906Y-110864104D01*
X137801667Y-149873200D02*
X137944524Y-149920819D01*
X137944524Y-149920819D02*
X138182619Y-149920819D01*
X138182619Y-149920819D02*
X138277857Y-149873200D01*
X138277857Y-149873200D02*
X138325476Y-149825580D01*
X138325476Y-149825580D02*
X138373095Y-149730342D01*
X138373095Y-149730342D02*
X138373095Y-149635104D01*
X138373095Y-149635104D02*
X138325476Y-149539866D01*
X138325476Y-149539866D02*
X138277857Y-149492247D01*
X138277857Y-149492247D02*
X138182619Y-149444628D01*
X138182619Y-149444628D02*
X137992143Y-149397009D01*
X137992143Y-149397009D02*
X137896905Y-149349390D01*
X137896905Y-149349390D02*
X137849286Y-149301771D01*
X137849286Y-149301771D02*
X137801667Y-149206533D01*
X137801667Y-149206533D02*
X137801667Y-149111295D01*
X137801667Y-149111295D02*
X137849286Y-149016057D01*
X137849286Y-149016057D02*
X137896905Y-148968438D01*
X137896905Y-148968438D02*
X137992143Y-148920819D01*
X137992143Y-148920819D02*
X138230238Y-148920819D01*
X138230238Y-148920819D02*
X138373095Y-148968438D01*
X138706429Y-148920819D02*
X138944524Y-149920819D01*
X138944524Y-149920819D02*
X139135000Y-149206533D01*
X139135000Y-149206533D02*
X139325476Y-149920819D01*
X139325476Y-149920819D02*
X139563572Y-148920819D01*
X140373095Y-149254152D02*
X140373095Y-149920819D01*
X140135000Y-148873200D02*
X139896905Y-149587485D01*
X139896905Y-149587485D02*
X140515952Y-149587485D01*
X118551667Y-149873200D02*
X118694524Y-149920819D01*
X118694524Y-149920819D02*
X118932619Y-149920819D01*
X118932619Y-149920819D02*
X119027857Y-149873200D01*
X119027857Y-149873200D02*
X119075476Y-149825580D01*
X119075476Y-149825580D02*
X119123095Y-149730342D01*
X119123095Y-149730342D02*
X119123095Y-149635104D01*
X119123095Y-149635104D02*
X119075476Y-149539866D01*
X119075476Y-149539866D02*
X119027857Y-149492247D01*
X119027857Y-149492247D02*
X118932619Y-149444628D01*
X118932619Y-149444628D02*
X118742143Y-149397009D01*
X118742143Y-149397009D02*
X118646905Y-149349390D01*
X118646905Y-149349390D02*
X118599286Y-149301771D01*
X118599286Y-149301771D02*
X118551667Y-149206533D01*
X118551667Y-149206533D02*
X118551667Y-149111295D01*
X118551667Y-149111295D02*
X118599286Y-149016057D01*
X118599286Y-149016057D02*
X118646905Y-148968438D01*
X118646905Y-148968438D02*
X118742143Y-148920819D01*
X118742143Y-148920819D02*
X118980238Y-148920819D01*
X118980238Y-148920819D02*
X119123095Y-148968438D01*
X119456429Y-148920819D02*
X119694524Y-149920819D01*
X119694524Y-149920819D02*
X119885000Y-149206533D01*
X119885000Y-149206533D02*
X120075476Y-149920819D01*
X120075476Y-149920819D02*
X120313572Y-148920819D01*
X120646905Y-149016057D02*
X120694524Y-148968438D01*
X120694524Y-148968438D02*
X120789762Y-148920819D01*
X120789762Y-148920819D02*
X121027857Y-148920819D01*
X121027857Y-148920819D02*
X121123095Y-148968438D01*
X121123095Y-148968438D02*
X121170714Y-149016057D01*
X121170714Y-149016057D02*
X121218333Y-149111295D01*
X121218333Y-149111295D02*
X121218333Y-149206533D01*
X121218333Y-149206533D02*
X121170714Y-149349390D01*
X121170714Y-149349390D02*
X120599286Y-149920819D01*
X120599286Y-149920819D02*
X121218333Y-149920819D01*
X157051667Y-130533200D02*
X157194524Y-130580819D01*
X157194524Y-130580819D02*
X157432619Y-130580819D01*
X157432619Y-130580819D02*
X157527857Y-130533200D01*
X157527857Y-130533200D02*
X157575476Y-130485580D01*
X157575476Y-130485580D02*
X157623095Y-130390342D01*
X157623095Y-130390342D02*
X157623095Y-130295104D01*
X157623095Y-130295104D02*
X157575476Y-130199866D01*
X157575476Y-130199866D02*
X157527857Y-130152247D01*
X157527857Y-130152247D02*
X157432619Y-130104628D01*
X157432619Y-130104628D02*
X157242143Y-130057009D01*
X157242143Y-130057009D02*
X157146905Y-130009390D01*
X157146905Y-130009390D02*
X157099286Y-129961771D01*
X157099286Y-129961771D02*
X157051667Y-129866533D01*
X157051667Y-129866533D02*
X157051667Y-129771295D01*
X157051667Y-129771295D02*
X157099286Y-129676057D01*
X157099286Y-129676057D02*
X157146905Y-129628438D01*
X157146905Y-129628438D02*
X157242143Y-129580819D01*
X157242143Y-129580819D02*
X157480238Y-129580819D01*
X157480238Y-129580819D02*
X157623095Y-129628438D01*
X157956429Y-129580819D02*
X158194524Y-130580819D01*
X158194524Y-130580819D02*
X158385000Y-129866533D01*
X158385000Y-129866533D02*
X158575476Y-130580819D01*
X158575476Y-130580819D02*
X158813572Y-129580819D01*
X159670714Y-129580819D02*
X159194524Y-129580819D01*
X159194524Y-129580819D02*
X159146905Y-130057009D01*
X159146905Y-130057009D02*
X159194524Y-130009390D01*
X159194524Y-130009390D02*
X159289762Y-129961771D01*
X159289762Y-129961771D02*
X159527857Y-129961771D01*
X159527857Y-129961771D02*
X159623095Y-130009390D01*
X159623095Y-130009390D02*
X159670714Y-130057009D01*
X159670714Y-130057009D02*
X159718333Y-130152247D01*
X159718333Y-130152247D02*
X159718333Y-130390342D01*
X159718333Y-130390342D02*
X159670714Y-130485580D01*
X159670714Y-130485580D02*
X159623095Y-130533200D01*
X159623095Y-130533200D02*
X159527857Y-130580819D01*
X159527857Y-130580819D02*
X159289762Y-130580819D01*
X159289762Y-130580819D02*
X159194524Y-130533200D01*
X159194524Y-130533200D02*
X159146905Y-130485580D01*
X137816667Y-130533200D02*
X137959524Y-130580819D01*
X137959524Y-130580819D02*
X138197619Y-130580819D01*
X138197619Y-130580819D02*
X138292857Y-130533200D01*
X138292857Y-130533200D02*
X138340476Y-130485580D01*
X138340476Y-130485580D02*
X138388095Y-130390342D01*
X138388095Y-130390342D02*
X138388095Y-130295104D01*
X138388095Y-130295104D02*
X138340476Y-130199866D01*
X138340476Y-130199866D02*
X138292857Y-130152247D01*
X138292857Y-130152247D02*
X138197619Y-130104628D01*
X138197619Y-130104628D02*
X138007143Y-130057009D01*
X138007143Y-130057009D02*
X137911905Y-130009390D01*
X137911905Y-130009390D02*
X137864286Y-129961771D01*
X137864286Y-129961771D02*
X137816667Y-129866533D01*
X137816667Y-129866533D02*
X137816667Y-129771295D01*
X137816667Y-129771295D02*
X137864286Y-129676057D01*
X137864286Y-129676057D02*
X137911905Y-129628438D01*
X137911905Y-129628438D02*
X138007143Y-129580819D01*
X138007143Y-129580819D02*
X138245238Y-129580819D01*
X138245238Y-129580819D02*
X138388095Y-129628438D01*
X138721429Y-129580819D02*
X138959524Y-130580819D01*
X138959524Y-130580819D02*
X139150000Y-129866533D01*
X139150000Y-129866533D02*
X139340476Y-130580819D01*
X139340476Y-130580819D02*
X139578572Y-129580819D01*
X139864286Y-129580819D02*
X140483333Y-129580819D01*
X140483333Y-129580819D02*
X140150000Y-129961771D01*
X140150000Y-129961771D02*
X140292857Y-129961771D01*
X140292857Y-129961771D02*
X140388095Y-130009390D01*
X140388095Y-130009390D02*
X140435714Y-130057009D01*
X140435714Y-130057009D02*
X140483333Y-130152247D01*
X140483333Y-130152247D02*
X140483333Y-130390342D01*
X140483333Y-130390342D02*
X140435714Y-130485580D01*
X140435714Y-130485580D02*
X140388095Y-130533200D01*
X140388095Y-130533200D02*
X140292857Y-130580819D01*
X140292857Y-130580819D02*
X140007143Y-130580819D01*
X140007143Y-130580819D02*
X139911905Y-130533200D01*
X139911905Y-130533200D02*
X139864286Y-130485580D01*
D11*
X129553479Y-112177309D02*
X130067526Y-112177309D01*
X130067526Y-112177309D02*
X130128002Y-112147071D01*
X130128002Y-112147071D02*
X130158241Y-112116833D01*
X130158241Y-112116833D02*
X130188479Y-112056357D01*
X130188479Y-112056357D02*
X130188479Y-111935404D01*
X130188479Y-111935404D02*
X130158241Y-111874928D01*
X130158241Y-111874928D02*
X130128002Y-111844690D01*
X130128002Y-111844690D02*
X130067526Y-111814452D01*
X130067526Y-111814452D02*
X129553479Y-111814452D01*
X130188479Y-111179452D02*
X130188479Y-111542309D01*
X130188479Y-111360881D02*
X129553479Y-111360881D01*
X129553479Y-111360881D02*
X129644193Y-111421357D01*
X129644193Y-111421357D02*
X129704669Y-111481833D01*
X129704669Y-111481833D02*
X129734907Y-111542309D01*
D12*
%TO.C,R4*%
X119550000Y-107890000D02*
X119550000Y-111730000D01*
X121390000Y-107890000D02*
X121390000Y-111730000D01*
%TO.C,R5*%
X118240000Y-107890000D02*
X118240000Y-111730000D01*
X116400000Y-107890000D02*
X116400000Y-111730000D01*
D13*
%TO.C,D1*%
X167239573Y-123096000D02*
X167239573Y-119964000D01*
X167239573Y-123096000D02*
G75*
G02*
X167239573Y-119964000I-2506124J1566000D01*
G01*
D14*
X168039573Y-121530000D02*
G75*
G02*
X167839573Y-121530000I-100000J0D01*
G01*
X167839573Y-121530000D02*
G75*
G02*
X168039573Y-121530000I100000J0D01*
G01*
D12*
%TO.C,J1*%
X118185000Y-101545000D02*
X118185000Y-104305000D01*
X125915000Y-101545000D02*
X118185000Y-101545000D01*
X125915000Y-101545000D02*
X125915000Y-104305000D01*
X125915000Y-104305000D02*
X118185000Y-104305000D01*
X127185000Y-101545000D02*
X128565000Y-101545000D01*
X128565000Y-101545000D02*
X128565000Y-102925000D01*
%TO.C,SW6*%
X151400000Y-150355000D02*
X165370000Y-150355000D01*
X151400000Y-164325000D02*
X151400000Y-150355000D01*
X165370000Y-150355000D02*
X165370000Y-164325000D01*
X165370000Y-164325000D02*
X151400000Y-164325000D01*
%TO.C,R2*%
X156290000Y-113188500D02*
X152450000Y-113188500D01*
X156290000Y-115028500D02*
X152450000Y-115028500D01*
%TO.C,SW1*%
X112900000Y-131015000D02*
X126870000Y-131015000D01*
X112900000Y-144985000D02*
X112900000Y-131015000D01*
X126870000Y-131015000D02*
X126870000Y-144985000D01*
X126870000Y-144985000D02*
X112900000Y-144985000D01*
%TO.C,R3*%
X156290000Y-110648500D02*
X152450000Y-110648500D01*
X156290000Y-112488500D02*
X152450000Y-112488500D01*
D13*
%TO.C,D2*%
X167190000Y-115676000D02*
X167190000Y-112544000D01*
X167190000Y-115676000D02*
G75*
G02*
X167190000Y-112544000I-2506124J1566000D01*
G01*
D14*
X167990000Y-114110000D02*
G75*
G02*
X167790000Y-114110000I-100000J0D01*
G01*
X167790000Y-114110000D02*
G75*
G02*
X167990000Y-114110000I100000J0D01*
G01*
D12*
%TO.C,R1*%
X156290000Y-115730000D02*
X152450000Y-115730000D01*
X156290000Y-117570000D02*
X152450000Y-117570000D01*
D13*
%TO.C,D3*%
X167239573Y-108436000D02*
X167239573Y-105304000D01*
X167239573Y-108436000D02*
G75*
G02*
X167239573Y-105304000I-2506124J1566000D01*
G01*
D14*
X168039573Y-106870000D02*
G75*
G02*
X167839573Y-106870000I-100000J0D01*
G01*
X167839573Y-106870000D02*
G75*
G02*
X168039573Y-106870000I100000J0D01*
G01*
D12*
%TO.C,SW4*%
X132150000Y-150355000D02*
X146120000Y-150355000D01*
X132150000Y-164325000D02*
X132150000Y-150355000D01*
X146120000Y-150355000D02*
X146120000Y-164325000D01*
X146120000Y-164325000D02*
X132150000Y-164325000D01*
%TO.C,SW2*%
X112900000Y-150355000D02*
X126870000Y-150355000D01*
X112900000Y-164325000D02*
X112900000Y-150355000D01*
X126870000Y-150355000D02*
X126870000Y-164325000D01*
X126870000Y-164325000D02*
X112900000Y-164325000D01*
%TO.C,SW5*%
X151400000Y-131015000D02*
X165370000Y-131015000D01*
X151400000Y-144985000D02*
X151400000Y-131015000D01*
X165370000Y-131015000D02*
X165370000Y-144985000D01*
X165370000Y-144985000D02*
X151400000Y-144985000D01*
%TO.C,SW3*%
X132165000Y-131015000D02*
X146135000Y-131015000D01*
X132165000Y-144985000D02*
X132165000Y-131015000D01*
X146135000Y-131015000D02*
X146135000Y-144985000D01*
X146135000Y-144985000D02*
X132165000Y-144985000D01*
D13*
%TO.C,U1*%
X131260000Y-120077500D02*
X131260000Y-102932500D01*
X133165000Y-121982500D02*
X147135000Y-121982500D01*
X135655000Y-101027500D02*
X135658728Y-100117228D01*
X136158728Y-99617500D02*
X144154000Y-99617500D01*
X144654000Y-100117500D02*
X144654000Y-101027500D01*
D15*
X147135000Y-101027500D02*
X133165000Y-101027500D01*
D13*
X147135000Y-101027500D02*
X133165000Y-101027500D01*
X149040000Y-120077500D02*
X149040000Y-102932500D01*
X131260000Y-102932500D02*
G75*
G02*
X133165000Y-101027500I1905000J0D01*
G01*
X133165000Y-121982500D02*
G75*
G02*
X131260000Y-120077500I1J1905001D01*
G01*
X135658728Y-100117228D02*
G75*
G02*
X136158728Y-99617528I499972J-272D01*
G01*
X144154000Y-99617500D02*
G75*
G02*
X144654000Y-100117500I0J-500000D01*
G01*
X147135000Y-101027500D02*
G75*
G02*
X149040000Y-102932500I0J-1905000D01*
G01*
X149040000Y-120077500D02*
G75*
G02*
X147135000Y-121982500I-1905001J1D01*
G01*
D16*
X131452000Y-101268500D02*
G75*
G02*
X130948000Y-101268500I-252000J0D01*
G01*
X130948000Y-101268500D02*
G75*
G02*
X131452000Y-101268500I252000J0D01*
G01*
X132595000Y-102148500D02*
G75*
G02*
X132091000Y-102148500I-252000J0D01*
G01*
X132091000Y-102148500D02*
G75*
G02*
X132595000Y-102148500I252000J0D01*
G01*
%TD*%
M02*
