%TF.GenerationSoftware,KiCad,Pcbnew,9.0.6*%
%TF.CreationDate,2026-06-30T16:50:24+02:00*%
%TF.ProjectId,ZeroPad,5a65726f-5061-4642-9e6b-696361645f70,rev?*%
%TF.SameCoordinates,Original*%
%TF.FileFunction,Copper,L2,Bot*%
%TF.FilePolarity,Positive*%
%FSLAX46Y46*%
G04 Gerber Fmt 4.6, Leading zero omitted, Abs format (unit mm)*
G04 Created by KiCad (PCBNEW 9.0.6) date 2026-06-30 16:50:24*
%MOMM*%
%LPD*%
G01*
G04 APERTURE LIST*
%TA.AperFunction,ComponentPad*%
%ADD10C,1.400000*%
%TD*%
%TA.AperFunction,ComponentPad*%
%ADD11C,1.815000*%
%TD*%
%TA.AperFunction,ComponentPad*%
%ADD12R,1.815000X1.815000*%
%TD*%
%TA.AperFunction,ComponentPad*%
%ADD13R,1.700000X1.700000*%
%TD*%
%TA.AperFunction,ComponentPad*%
%ADD14C,1.700000*%
%TD*%
%TA.AperFunction,ComponentPad*%
%ADD15C,2.200000*%
%TD*%
%TA.AperFunction,ComponentPad*%
%ADD16C,1.524000*%
%TD*%
%TA.AperFunction,ViaPad*%
%ADD17C,0.600000*%
%TD*%
%TA.AperFunction,Conductor*%
%ADD18C,0.200000*%
%TD*%
G04 APERTURE END LIST*
D10*
%TO.P,R4,2*%
%TO.N,SDA*%
X120470000Y-112350000D03*
%TO.P,R4,1*%
%TO.N,+3V3*%
X120470000Y-107270000D03*
%TD*%
%TO.P,R5,1*%
%TO.N,+3V3*%
X117320000Y-107270000D03*
%TO.P,R5,2*%
%TO.N,SCL*%
X117320000Y-112350000D03*
%TD*%
D11*
%TO.P,D1,A*%
%TO.N,Net-(D1-PadA)*%
X163469573Y-121530000D03*
D12*
%TO.P,D1,C*%
%TO.N,GND*%
X166009573Y-121530000D03*
%TD*%
D13*
%TO.P,J1,1,Pin_1*%
%TO.N,SDA*%
X127185000Y-102925000D03*
D14*
%TO.P,J1,2,Pin_2*%
%TO.N,SCL*%
X124645000Y-102925000D03*
%TO.P,J1,3,Pin_3*%
%TO.N,+3V3*%
X122105000Y-102925000D03*
%TO.P,J1,4,Pin_4*%
%TO.N,GND*%
X119565000Y-102925000D03*
%TD*%
D15*
%TO.P,SW6,1,1*%
%TO.N,BUTTON6*%
X160925000Y-152260000D03*
%TO.P,SW6,2,2*%
%TO.N,GND*%
X154575000Y-154800000D03*
%TD*%
D10*
%TO.P,R2,1*%
%TO.N,Net-(D2-PadA)*%
X156910000Y-114108500D03*
%TO.P,R2,2*%
%TO.N,LED2*%
X151830000Y-114108500D03*
%TD*%
D15*
%TO.P,SW1,1,1*%
%TO.N,BUTTON1*%
X122425000Y-132920000D03*
%TO.P,SW1,2,2*%
%TO.N,GND*%
X116075000Y-135460000D03*
%TD*%
D10*
%TO.P,R3,1*%
%TO.N,Net-(D3-PadA)*%
X156910000Y-111568500D03*
%TO.P,R3,2*%
%TO.N,LED3*%
X151830000Y-111568500D03*
%TD*%
D11*
%TO.P,D2,A*%
%TO.N,Net-(D2-PadA)*%
X163420000Y-114110000D03*
D12*
%TO.P,D2,C*%
%TO.N,GND*%
X165960000Y-114110000D03*
%TD*%
D10*
%TO.P,R1,1*%
%TO.N,Net-(D1-PadA)*%
X156910000Y-116650000D03*
%TO.P,R1,2*%
%TO.N,LED1*%
X151830000Y-116650000D03*
%TD*%
D11*
%TO.P,D3,A*%
%TO.N,Net-(D3-PadA)*%
X163469573Y-106870000D03*
D12*
%TO.P,D3,C*%
%TO.N,GND*%
X166009573Y-106870000D03*
%TD*%
D15*
%TO.P,SW4,1,1*%
%TO.N,BUTTON3*%
X141675000Y-152260000D03*
%TO.P,SW4,2,2*%
%TO.N,GND*%
X135325000Y-154800000D03*
%TD*%
%TO.P,SW2,1,1*%
%TO.N,BUTTON2*%
X122425000Y-152260000D03*
%TO.P,SW2,2,2*%
%TO.N,GND*%
X116075000Y-154800000D03*
%TD*%
%TO.P,SW5,1,1*%
%TO.N,BUTTON5*%
X160925000Y-132920000D03*
%TO.P,SW5,2,2*%
%TO.N,GND*%
X154575000Y-135460000D03*
%TD*%
%TO.P,SW3,1,1*%
%TO.N,BUTTON4*%
X141690000Y-132920000D03*
%TO.P,SW3,2,2*%
%TO.N,GND*%
X135340000Y-135460000D03*
%TD*%
D16*
%TO.P,U1,1,GPIO26/ADC0/A0*%
%TO.N,BUTTON1*%
X132530000Y-103948500D03*
%TO.P,U1,2,GPIO27/ADC1/A1*%
%TO.N,BUTTON2*%
X132530000Y-106488500D03*
%TO.P,U1,3,GPIO28/ADC2/A2*%
%TO.N,BUTTON3*%
X132530000Y-109028500D03*
%TO.P,U1,4,GPIO29/ADC3/A3*%
%TO.N,BUTTON6*%
X132530000Y-111568500D03*
%TO.P,U1,5,GPIO6/SDA*%
%TO.N,SDA*%
X132530000Y-114108500D03*
%TO.P,U1,6,GPIO7/SCL*%
%TO.N,SCL*%
X132530000Y-116648500D03*
%TO.P,U1,7,GPIO0/TX*%
%TO.N,BUTTON4*%
X132530000Y-119188500D03*
%TO.P,U1,8,GPIO1/RX*%
%TO.N,BUTTON5*%
X147770000Y-119188500D03*
%TO.P,U1,9,GPIO2/SCK*%
%TO.N,LED1*%
X147770000Y-116648500D03*
%TO.P,U1,10,GPIO4/MISO*%
%TO.N,LED2*%
X147770000Y-114108500D03*
%TO.P,U1,11,GPIO3/MOSI*%
%TO.N,LED3*%
X147770000Y-111568500D03*
%TO.P,U1,12,3V3*%
%TO.N,+3V3*%
X147770000Y-109028500D03*
%TO.P,U1,13,GND*%
%TO.N,GND*%
X147770000Y-106488500D03*
%TO.P,U1,14,VBUS*%
%TO.N,unconnected-(U1-VBUS-Pad14)*%
X147770000Y-103948500D03*
%TD*%
D17*
%TO.N,SDA*%
X127870000Y-114110000D03*
%TD*%
D18*
%TO.N,SDA*%
X122230000Y-114110000D02*
X120470000Y-112350000D01*
X127870000Y-114110000D02*
X122230000Y-114110000D01*
X127185000Y-108763500D02*
X127185000Y-102925000D01*
%TO.N,SCL*%
X121618500Y-116648500D02*
X132530000Y-116648500D01*
X117320000Y-112350000D02*
X121618500Y-116648500D01*
X132530000Y-116648500D02*
X124645000Y-108763500D01*
X124645000Y-108763500D02*
X124645000Y-102925000D01*
%TO.N,SDA*%
X132530000Y-114108500D02*
X127185000Y-108763500D01*
%TD*%
%TA.AperFunction,Conductor*%
%TO.N,GND*%
G36*
X119095427Y-101445185D02*
G01*
X119141182Y-101497989D01*
X119151126Y-101567147D01*
X119122101Y-101630703D01*
X119066706Y-101667431D01*
X119046782Y-101673904D01*
X118857439Y-101770380D01*
X118803282Y-101809727D01*
X118803282Y-101809728D01*
X119435591Y-102442037D01*
X119372007Y-102459075D01*
X119257993Y-102524901D01*
X119164901Y-102617993D01*
X119099075Y-102732007D01*
X119082037Y-102795591D01*
X118449728Y-102163282D01*
X118449727Y-102163282D01*
X118410380Y-102217439D01*
X118313904Y-102406782D01*
X118248242Y-102608869D01*
X118248242Y-102608872D01*
X118215000Y-102818753D01*
X118215000Y-103031246D01*
X118248242Y-103241127D01*
X118248242Y-103241130D01*
X118313904Y-103443217D01*
X118410375Y-103632550D01*
X118449728Y-103686716D01*
X119082037Y-103054408D01*
X119099075Y-103117993D01*
X119164901Y-103232007D01*
X119257993Y-103325099D01*
X119372007Y-103390925D01*
X119435590Y-103407962D01*
X118803282Y-104040269D01*
X118803282Y-104040270D01*
X118857449Y-104079624D01*
X119046782Y-104176095D01*
X119248870Y-104241757D01*
X119458754Y-104275000D01*
X119671246Y-104275000D01*
X119881127Y-104241757D01*
X119881130Y-104241757D01*
X120083217Y-104176095D01*
X120272554Y-104079622D01*
X120326716Y-104040270D01*
X120326717Y-104040270D01*
X119694408Y-103407962D01*
X119757993Y-103390925D01*
X119872007Y-103325099D01*
X119965099Y-103232007D01*
X120030925Y-103117993D01*
X120047962Y-103054409D01*
X120680270Y-103686717D01*
X120680270Y-103686716D01*
X120719622Y-103632555D01*
X120724232Y-103623507D01*
X120772205Y-103572709D01*
X120840025Y-103555912D01*
X120906161Y-103578447D01*
X120945204Y-103623504D01*
X120949949Y-103632817D01*
X121074890Y-103804786D01*
X121225213Y-103955109D01*
X121397179Y-104080048D01*
X121397181Y-104080049D01*
X121397184Y-104080051D01*
X121586588Y-104176557D01*
X121788757Y-104242246D01*
X121998713Y-104275500D01*
X121998714Y-104275500D01*
X122211286Y-104275500D01*
X122211287Y-104275500D01*
X122421243Y-104242246D01*
X122623412Y-104176557D01*
X122812816Y-104080051D01*
X122857122Y-104047861D01*
X122984786Y-103955109D01*
X122984788Y-103955106D01*
X122984792Y-103955104D01*
X123135104Y-103804792D01*
X123135106Y-103804788D01*
X123135109Y-103804786D01*
X123260048Y-103632820D01*
X123260050Y-103632817D01*
X123260051Y-103632816D01*
X123264514Y-103624054D01*
X123312488Y-103573259D01*
X123380308Y-103556463D01*
X123446444Y-103578999D01*
X123485486Y-103624056D01*
X123489951Y-103632820D01*
X123614890Y-103804786D01*
X123765213Y-103955109D01*
X123937184Y-104080051D01*
X123937184Y-104080052D01*
X123976793Y-104100233D01*
X124027590Y-104148206D01*
X124044500Y-104210718D01*
X124044500Y-108676830D01*
X124044499Y-108676848D01*
X124044499Y-108842554D01*
X124044498Y-108842554D01*
X124085423Y-108995285D01*
X124114358Y-109045400D01*
X124114359Y-109045404D01*
X124114360Y-109045404D01*
X124164479Y-109132214D01*
X124164481Y-109132217D01*
X124283349Y-109251085D01*
X124283355Y-109251090D01*
X128150282Y-113118017D01*
X128183767Y-113179340D01*
X128178783Y-113249032D01*
X128136911Y-113304965D01*
X128071447Y-113329382D01*
X128038410Y-113327315D01*
X127948846Y-113309500D01*
X127948842Y-113309500D01*
X127791158Y-113309500D01*
X127791155Y-113309500D01*
X127636510Y-113340261D01*
X127636498Y-113340264D01*
X127490827Y-113400602D01*
X127490814Y-113400609D01*
X127359125Y-113488602D01*
X127292447Y-113509480D01*
X127290234Y-113509500D01*
X122530097Y-113509500D01*
X122463058Y-113489815D01*
X122442416Y-113473181D01*
X121680066Y-112710831D01*
X121646581Y-112649508D01*
X121645274Y-112603752D01*
X121670500Y-112444486D01*
X121670500Y-112255513D01*
X121640940Y-112068881D01*
X121582545Y-111889163D01*
X121496759Y-111720800D01*
X121385690Y-111567927D01*
X121252073Y-111434310D01*
X121099199Y-111323240D01*
X120930836Y-111237454D01*
X120751118Y-111179059D01*
X120564486Y-111149500D01*
X120564481Y-111149500D01*
X120375519Y-111149500D01*
X120375514Y-111149500D01*
X120188881Y-111179059D01*
X120009163Y-111237454D01*
X119840800Y-111323240D01*
X119753579Y-111386610D01*
X119687927Y-111434310D01*
X119687925Y-111434312D01*
X119687924Y-111434312D01*
X119554312Y-111567924D01*
X119554312Y-111567925D01*
X119554310Y-111567927D01*
X119506610Y-111633579D01*
X119443240Y-111720800D01*
X119357454Y-111889163D01*
X119299059Y-112068881D01*
X119269500Y-112255513D01*
X119269500Y-112444486D01*
X119299059Y-112631118D01*
X119357454Y-112810836D01*
X119433668Y-112960413D01*
X119443240Y-112979199D01*
X119554310Y-113132073D01*
X119687927Y-113265690D01*
X119840801Y-113376760D01*
X119920347Y-113417290D01*
X120009163Y-113462545D01*
X120009165Y-113462545D01*
X120009168Y-113462547D01*
X120088153Y-113488211D01*
X120188881Y-113520940D01*
X120375514Y-113550500D01*
X120375519Y-113550500D01*
X120564486Y-113550500D01*
X120681017Y-113532042D01*
X120723753Y-113525274D01*
X120793045Y-113534228D01*
X120830831Y-113560066D01*
X121745139Y-114474374D01*
X121745149Y-114474385D01*
X121749479Y-114478715D01*
X121749480Y-114478716D01*
X121861284Y-114590520D01*
X121912845Y-114620288D01*
X121948095Y-114640639D01*
X121948097Y-114640641D01*
X121986151Y-114662611D01*
X121998215Y-114669577D01*
X122150943Y-114710501D01*
X122150946Y-114710501D01*
X122316653Y-114710501D01*
X122316669Y-114710500D01*
X127290234Y-114710500D01*
X127357273Y-114730185D01*
X127359125Y-114731398D01*
X127490814Y-114819390D01*
X127490827Y-114819397D01*
X127636498Y-114879735D01*
X127636503Y-114879737D01*
X127791153Y-114910499D01*
X127791156Y-114910500D01*
X127791158Y-114910500D01*
X127948844Y-114910500D01*
X127948845Y-114910499D01*
X128103497Y-114879737D01*
X128249179Y-114819394D01*
X128380289Y-114731789D01*
X128491789Y-114620289D01*
X128579394Y-114489179D01*
X128639737Y-114343497D01*
X128670500Y-114188842D01*
X128670500Y-114031158D01*
X128670500Y-114031155D01*
X128652684Y-113941590D01*
X128658911Y-113871998D01*
X128701774Y-113816821D01*
X128767664Y-113793576D01*
X128835661Y-113809644D01*
X128861982Y-113829717D01*
X130868584Y-115836319D01*
X130902069Y-115897642D01*
X130897085Y-115967334D01*
X130855213Y-116023267D01*
X130789749Y-116047684D01*
X130780903Y-116048000D01*
X121918597Y-116048000D01*
X121851558Y-116028315D01*
X121830916Y-116011681D01*
X118530066Y-112710831D01*
X118496581Y-112649508D01*
X118495274Y-112603752D01*
X118520500Y-112444486D01*
X118520500Y-112255513D01*
X118490940Y-112068881D01*
X118432545Y-111889163D01*
X118346759Y-111720800D01*
X118235690Y-111567927D01*
X118102073Y-111434310D01*
X117949199Y-111323240D01*
X117780836Y-111237454D01*
X117601118Y-111179059D01*
X117414486Y-111149500D01*
X117414481Y-111149500D01*
X117225519Y-111149500D01*
X117225514Y-111149500D01*
X117038881Y-111179059D01*
X116859163Y-111237454D01*
X116690800Y-111323240D01*
X116603579Y-111386610D01*
X116537927Y-111434310D01*
X116537925Y-111434312D01*
X116537924Y-111434312D01*
X116404312Y-111567924D01*
X116404312Y-111567925D01*
X116404310Y-111567927D01*
X116356610Y-111633579D01*
X116293240Y-111720800D01*
X116207454Y-111889163D01*
X116149059Y-112068881D01*
X116119500Y-112255513D01*
X116119500Y-112444486D01*
X116149059Y-112631118D01*
X116207454Y-112810836D01*
X116283668Y-112960413D01*
X116293240Y-112979199D01*
X116404310Y-113132073D01*
X116537927Y-113265690D01*
X116690801Y-113376760D01*
X116770347Y-113417290D01*
X116859163Y-113462545D01*
X116859165Y-113462545D01*
X116859168Y-113462547D01*
X116938153Y-113488211D01*
X117038881Y-113520940D01*
X117225514Y-113550500D01*
X117225519Y-113550500D01*
X117414486Y-113550500D01*
X117531017Y-113532042D01*
X117573753Y-113525274D01*
X117643045Y-113534228D01*
X117680831Y-113560066D01*
X121133639Y-117012874D01*
X121133649Y-117012885D01*
X121137979Y-117017215D01*
X121137980Y-117017216D01*
X121249784Y-117129020D01*
X121336595Y-117179139D01*
X121336597Y-117179141D01*
X121374651Y-117201111D01*
X121386715Y-117208077D01*
X121539443Y-117249001D01*
X121539446Y-117249001D01*
X121705153Y-117249001D01*
X121705169Y-117249000D01*
X131343270Y-117249000D01*
X131410309Y-117268685D01*
X131447191Y-117306366D01*
X131447349Y-117306252D01*
X131448127Y-117307323D01*
X131449000Y-117308215D01*
X131450210Y-117310190D01*
X131450213Y-117310194D01*
X131567019Y-117470964D01*
X131707536Y-117611481D01*
X131868306Y-117728287D01*
X131935541Y-117762545D01*
X132024780Y-117808015D01*
X132075576Y-117855990D01*
X132092371Y-117923811D01*
X132069833Y-117989946D01*
X132024780Y-118028985D01*
X131868305Y-118108713D01*
X131707533Y-118225521D01*
X131567021Y-118366033D01*
X131450213Y-118526805D01*
X131359994Y-118703867D01*
X131359993Y-118703870D01*
X131298587Y-118892862D01*
X131267500Y-119089139D01*
X131267500Y-119287860D01*
X131298587Y-119484137D01*
X131359993Y-119673129D01*
X131359994Y-119673132D01*
X131450213Y-119850194D01*
X131567019Y-120010964D01*
X131707536Y-120151481D01*
X131868306Y-120268287D01*
X131955149Y-120312535D01*
X132045367Y-120358505D01*
X132045370Y-120358506D01*
X132112773Y-120380406D01*
X132234364Y-120419913D01*
X132430639Y-120451000D01*
X132430640Y-120451000D01*
X132629360Y-120451000D01*
X132629361Y-120451000D01*
X132825636Y-120419913D01*
X133014632Y-120358505D01*
X133191694Y-120268287D01*
X133352464Y-120151481D01*
X133492981Y-120010964D01*
X133609787Y-119850194D01*
X133700005Y-119673132D01*
X133761413Y-119484136D01*
X133792500Y-119287861D01*
X133792500Y-119089139D01*
X133761413Y-118892864D01*
X133700005Y-118703868D01*
X133700005Y-118703867D01*
X133609786Y-118526805D01*
X133492981Y-118366036D01*
X133352464Y-118225519D01*
X133191694Y-118108713D01*
X133035218Y-118028984D01*
X132984423Y-117981010D01*
X132967628Y-117913189D01*
X132990165Y-117847054D01*
X133035218Y-117808015D01*
X133191694Y-117728287D01*
X133352464Y-117611481D01*
X133492981Y-117470964D01*
X133609787Y-117310194D01*
X133700005Y-117133132D01*
X133761413Y-116944136D01*
X133792500Y-116747861D01*
X133792500Y-116549139D01*
X133761413Y-116352864D01*
X133730709Y-116258366D01*
X133700006Y-116163870D01*
X133700005Y-116163867D01*
X133627108Y-116020800D01*
X133609787Y-115986806D01*
X133492981Y-115826036D01*
X133352464Y-115685519D01*
X133191694Y-115568713D01*
X133035218Y-115488984D01*
X132984423Y-115441010D01*
X132967628Y-115373189D01*
X132990165Y-115307054D01*
X133035218Y-115268015D01*
X133191694Y-115188287D01*
X133352464Y-115071481D01*
X133492981Y-114930964D01*
X133609787Y-114770194D01*
X133700005Y-114593132D01*
X133761413Y-114404136D01*
X133792500Y-114207861D01*
X133792500Y-114009139D01*
X133761413Y-113812864D01*
X133707738Y-113647668D01*
X133700006Y-113623870D01*
X133700005Y-113623867D01*
X133626344Y-113479301D01*
X133609787Y-113446806D01*
X133492981Y-113286036D01*
X133352464Y-113145519D01*
X133191694Y-113028713D01*
X133035218Y-112948984D01*
X132984423Y-112901010D01*
X132967628Y-112833189D01*
X132990165Y-112767054D01*
X133035218Y-112728015D01*
X133191694Y-112648287D01*
X133352464Y-112531481D01*
X133492981Y-112390964D01*
X133609787Y-112230194D01*
X133700005Y-112053132D01*
X133761413Y-111864136D01*
X133792500Y-111667861D01*
X133792500Y-111469139D01*
X133761413Y-111272864D01*
X133707738Y-111107668D01*
X133700006Y-111083870D01*
X133700005Y-111083867D01*
X133626344Y-110939301D01*
X133609787Y-110906806D01*
X133492981Y-110746036D01*
X133352464Y-110605519D01*
X133191694Y-110488713D01*
X133035218Y-110408984D01*
X132984423Y-110361010D01*
X132967628Y-110293189D01*
X132990165Y-110227054D01*
X133035218Y-110188015D01*
X133191694Y-110108287D01*
X133352464Y-109991481D01*
X133492981Y-109850964D01*
X133609787Y-109690194D01*
X133700005Y-109513132D01*
X133761413Y-109324136D01*
X133792500Y-109127861D01*
X133792500Y-108929139D01*
X133761413Y-108732864D01*
X133700005Y-108543868D01*
X133700005Y-108543867D01*
X133609786Y-108366805D01*
X133492981Y-108206036D01*
X133352464Y-108065519D01*
X133191694Y-107948713D01*
X133035218Y-107868984D01*
X132984423Y-107821010D01*
X132967628Y-107753189D01*
X132990165Y-107687054D01*
X133035218Y-107648015D01*
X133191694Y-107568287D01*
X133352464Y-107451481D01*
X133492981Y-107310964D01*
X133609787Y-107150194D01*
X133700005Y-106973132D01*
X133761413Y-106784136D01*
X133792500Y-106587861D01*
X133792500Y-106389139D01*
X133761413Y-106192864D01*
X133700005Y-106003868D01*
X133700005Y-106003867D01*
X133654035Y-105913649D01*
X133609787Y-105826806D01*
X133492981Y-105666036D01*
X133352464Y-105525519D01*
X133191694Y-105408713D01*
X133035218Y-105328984D01*
X132984423Y-105281010D01*
X132967628Y-105213189D01*
X132990165Y-105147054D01*
X133035218Y-105108015D01*
X133191694Y-105028287D01*
X133352464Y-104911481D01*
X133492981Y-104770964D01*
X133609787Y-104610194D01*
X133700005Y-104433132D01*
X133761413Y-104244136D01*
X133792500Y-104047861D01*
X133792500Y-103849139D01*
X146507500Y-103849139D01*
X146507500Y-104047861D01*
X146512599Y-104080052D01*
X146538587Y-104244137D01*
X146599993Y-104433129D01*
X146599994Y-104433132D01*
X146690213Y-104610194D01*
X146807019Y-104770964D01*
X146947536Y-104911481D01*
X147108306Y-105028287D01*
X147265332Y-105108296D01*
X147316127Y-105156269D01*
X147332922Y-105224090D01*
X147310385Y-105290225D01*
X147265332Y-105329264D01*
X147108566Y-105409141D01*
X147071283Y-105436229D01*
X147071282Y-105436230D01*
X147685906Y-106050852D01*
X147598429Y-106074292D01*
X147497070Y-106132811D01*
X147414311Y-106215570D01*
X147355792Y-106316929D01*
X147332352Y-106404405D01*
X146717730Y-105789782D01*
X146717729Y-105789783D01*
X146690643Y-105827064D01*
X146600457Y-106004062D01*
X146539075Y-106192976D01*
X146539075Y-106192979D01*
X146508000Y-106389178D01*
X146508000Y-106587821D01*
X146539075Y-106784020D01*
X146539075Y-106784023D01*
X146600457Y-106972937D01*
X146690641Y-107149932D01*
X146717730Y-107187215D01*
X146717731Y-107187216D01*
X147332352Y-106572594D01*
X147355792Y-106660071D01*
X147414311Y-106761430D01*
X147497070Y-106844189D01*
X147598429Y-106902708D01*
X147685905Y-106926147D01*
X147071283Y-107540768D01*
X147071283Y-107540769D01*
X147108567Y-107567858D01*
X147265331Y-107647734D01*
X147316127Y-107695709D01*
X147332922Y-107763530D01*
X147310384Y-107829665D01*
X147265331Y-107868704D01*
X147108305Y-107948713D01*
X146947533Y-108065521D01*
X146807021Y-108206033D01*
X146690213Y-108366805D01*
X146599994Y-108543867D01*
X146599993Y-108543870D01*
X146538587Y-108732862D01*
X146538587Y-108732864D01*
X146507500Y-108929139D01*
X146507500Y-109127861D01*
X146508190Y-109132216D01*
X146538587Y-109324137D01*
X146599993Y-109513129D01*
X146599994Y-109513132D01*
X146690213Y-109690194D01*
X146807019Y-109850964D01*
X146947536Y-109991481D01*
X147108306Y-110108287D01*
X147226832Y-110168679D01*
X147264780Y-110188015D01*
X147315576Y-110235990D01*
X147332371Y-110303811D01*
X147309833Y-110369946D01*
X147264780Y-110408985D01*
X147108305Y-110488713D01*
X146947533Y-110605521D01*
X146807021Y-110746033D01*
X146690213Y-110906805D01*
X146599994Y-111083867D01*
X146599993Y-111083870D01*
X146538587Y-111272862D01*
X146507500Y-111469139D01*
X146507500Y-111667860D01*
X146538587Y-111864137D01*
X146599993Y-112053129D01*
X146599994Y-112053132D01*
X146637526Y-112126791D01*
X146690213Y-112230194D01*
X146807019Y-112390964D01*
X146947536Y-112531481D01*
X147108306Y-112648287D01*
X147172597Y-112681045D01*
X147264780Y-112728015D01*
X147315576Y-112775990D01*
X147332371Y-112843811D01*
X147309833Y-112909946D01*
X147264780Y-112948985D01*
X147108305Y-113028713D01*
X146947533Y-113145521D01*
X146807021Y-113286033D01*
X146690213Y-113446805D01*
X146599994Y-113623867D01*
X146599993Y-113623870D01*
X146538587Y-113812862D01*
X146507500Y-114009139D01*
X146507500Y-114207860D01*
X146538587Y-114404137D01*
X146599993Y-114593129D01*
X146599994Y-114593132D01*
X146673656Y-114737699D01*
X146690213Y-114770194D01*
X146807019Y-114930964D01*
X146947536Y-115071481D01*
X147108306Y-115188287D01*
X147172597Y-115221045D01*
X147264780Y-115268015D01*
X147315576Y-115315990D01*
X147332371Y-115383811D01*
X147309833Y-115449946D01*
X147264780Y-115488985D01*
X147108305Y-115568713D01*
X146947533Y-115685521D01*
X146807021Y-115826033D01*
X146690213Y-115986805D01*
X146599994Y-116163867D01*
X146599993Y-116163870D01*
X146538587Y-116352862D01*
X146507500Y-116549139D01*
X146507500Y-116747860D01*
X146538587Y-116944137D01*
X146599993Y-117133129D01*
X146599994Y-117133132D01*
X146659033Y-117249000D01*
X146690213Y-117310194D01*
X146807019Y-117470964D01*
X146947536Y-117611481D01*
X147108306Y-117728287D01*
X147175541Y-117762545D01*
X147264780Y-117808015D01*
X147315576Y-117855990D01*
X147332371Y-117923811D01*
X147309833Y-117989946D01*
X147264780Y-118028985D01*
X147108305Y-118108713D01*
X146947533Y-118225521D01*
X146807021Y-118366033D01*
X146690213Y-118526805D01*
X146599994Y-118703867D01*
X146599993Y-118703870D01*
X146538587Y-118892862D01*
X146507500Y-119089139D01*
X146507500Y-119287860D01*
X146538587Y-119484137D01*
X146599993Y-119673129D01*
X146599994Y-119673132D01*
X146690213Y-119850194D01*
X146807019Y-120010964D01*
X146947536Y-120151481D01*
X147108306Y-120268287D01*
X147195149Y-120312535D01*
X147285367Y-120358505D01*
X147285370Y-120358506D01*
X147352773Y-120380406D01*
X147474364Y-120419913D01*
X147670639Y-120451000D01*
X147670640Y-120451000D01*
X147869360Y-120451000D01*
X147869361Y-120451000D01*
X148065636Y-120419913D01*
X148254632Y-120358505D01*
X148431694Y-120268287D01*
X148592464Y-120151481D01*
X148732981Y-120010964D01*
X148849787Y-119850194D01*
X148940005Y-119673132D01*
X149001413Y-119484136D01*
X149032500Y-119287861D01*
X149032500Y-119089139D01*
X149001413Y-118892864D01*
X148940005Y-118703868D01*
X148940005Y-118703867D01*
X148849786Y-118526805D01*
X148732981Y-118366036D01*
X148592464Y-118225519D01*
X148431694Y-118108713D01*
X148275218Y-118028984D01*
X148224423Y-117981010D01*
X148207628Y-117913189D01*
X148230165Y-117847054D01*
X148275218Y-117808015D01*
X148431694Y-117728287D01*
X148592464Y-117611481D01*
X148732981Y-117470964D01*
X148849787Y-117310194D01*
X148940005Y-117133132D01*
X149001413Y-116944136D01*
X149032500Y-116747861D01*
X149032500Y-116549139D01*
X149001413Y-116352864D01*
X148970709Y-116258366D01*
X148940006Y-116163870D01*
X148940005Y-116163867D01*
X148867108Y-116020800D01*
X148849787Y-115986806D01*
X148732981Y-115826036D01*
X148592464Y-115685519D01*
X148431694Y-115568713D01*
X148275218Y-115488984D01*
X148224423Y-115441010D01*
X148207628Y-115373189D01*
X148230165Y-115307054D01*
X148275218Y-115268015D01*
X148431694Y-115188287D01*
X148592464Y-115071481D01*
X148732981Y-114930964D01*
X148849787Y-114770194D01*
X148940005Y-114593132D01*
X149001413Y-114404136D01*
X149032500Y-114207861D01*
X149032500Y-114009139D01*
X149001413Y-113812864D01*
X148947738Y-113647668D01*
X148940006Y-113623870D01*
X148940005Y-113623867D01*
X148866344Y-113479301D01*
X148849787Y-113446806D01*
X148732981Y-113286036D01*
X148592464Y-113145519D01*
X148431694Y-113028713D01*
X148275218Y-112948984D01*
X148224423Y-112901010D01*
X148207628Y-112833189D01*
X148230165Y-112767054D01*
X148275218Y-112728015D01*
X148431694Y-112648287D01*
X148592464Y-112531481D01*
X148732981Y-112390964D01*
X148849787Y-112230194D01*
X148940005Y-112053132D01*
X149001413Y-111864136D01*
X149032500Y-111667861D01*
X149032500Y-111474013D01*
X150629500Y-111474013D01*
X150629500Y-111662986D01*
X150659059Y-111849618D01*
X150717454Y-112029336D01*
X150803240Y-112197699D01*
X150914310Y-112350573D01*
X151047927Y-112484190D01*
X151200801Y-112595260D01*
X151217468Y-112603752D01*
X151369163Y-112681045D01*
X151369165Y-112681045D01*
X151369168Y-112681047D01*
X151435193Y-112702500D01*
X151490803Y-112720569D01*
X151548478Y-112760007D01*
X151575676Y-112824366D01*
X151563761Y-112893212D01*
X151516516Y-112944688D01*
X151490803Y-112956431D01*
X151369163Y-112995954D01*
X151200800Y-113081740D01*
X151131521Y-113132075D01*
X151047927Y-113192810D01*
X151047925Y-113192812D01*
X151047924Y-113192812D01*
X150914312Y-113326424D01*
X150914312Y-113326425D01*
X150914310Y-113326427D01*
X150877741Y-113376760D01*
X150803240Y-113479300D01*
X150717454Y-113647663D01*
X150659059Y-113827381D01*
X150629500Y-114014013D01*
X150629500Y-114202986D01*
X150659059Y-114389618D01*
X150717454Y-114569336D01*
X150768529Y-114669575D01*
X150803240Y-114737699D01*
X150914310Y-114890573D01*
X151047927Y-115024190D01*
X151200801Y-115135260D01*
X151280347Y-115175790D01*
X151369163Y-115221045D01*
X151369165Y-115221045D01*
X151369168Y-115221047D01*
X151430494Y-115240973D01*
X151493111Y-115261319D01*
X151550786Y-115300757D01*
X151577984Y-115365116D01*
X151566069Y-115433962D01*
X151518824Y-115485438D01*
X151493111Y-115497181D01*
X151369163Y-115537454D01*
X151200800Y-115623240D01*
X151115082Y-115685519D01*
X151047927Y-115734310D01*
X151047925Y-115734312D01*
X151047924Y-115734312D01*
X150914312Y-115867924D01*
X150914312Y-115867925D01*
X150914310Y-115867927D01*
X150892721Y-115897642D01*
X150803240Y-116020800D01*
X150717454Y-116189163D01*
X150659059Y-116368881D01*
X150629500Y-116555513D01*
X150629500Y-116744486D01*
X150659059Y-116931118D01*
X150717454Y-117110836D01*
X150787853Y-117249000D01*
X150803240Y-117279199D01*
X150914310Y-117432073D01*
X151047927Y-117565690D01*
X151200801Y-117676760D01*
X151280347Y-117717290D01*
X151369163Y-117762545D01*
X151369165Y-117762545D01*
X151369168Y-117762547D01*
X151465497Y-117793846D01*
X151548881Y-117820940D01*
X151735514Y-117850500D01*
X151735519Y-117850500D01*
X151924486Y-117850500D01*
X152111118Y-117820940D01*
X152118612Y-117818505D01*
X152290832Y-117762547D01*
X152459199Y-117676760D01*
X152612073Y-117565690D01*
X152745690Y-117432073D01*
X152856760Y-117279199D01*
X152942547Y-117110832D01*
X153000940Y-116931118D01*
X153029965Y-116747861D01*
X153030500Y-116744486D01*
X153030500Y-116555513D01*
X153000940Y-116368881D01*
X152942545Y-116189163D01*
X152897290Y-116100347D01*
X152856760Y-116020801D01*
X152745690Y-115867927D01*
X152612073Y-115734310D01*
X152459199Y-115623240D01*
X152290836Y-115537454D01*
X152166888Y-115497181D01*
X152109213Y-115457743D01*
X152082015Y-115393384D01*
X152093930Y-115324538D01*
X152141174Y-115273062D01*
X152166888Y-115261319D01*
X152172222Y-115259586D01*
X152290832Y-115221047D01*
X152459199Y-115135260D01*
X152612073Y-115024190D01*
X152745690Y-114890573D01*
X152856760Y-114737699D01*
X152942547Y-114569332D01*
X153000940Y-114389618D01*
X153008246Y-114343489D01*
X153030500Y-114202986D01*
X153030500Y-114014013D01*
X153000940Y-113827381D01*
X152942545Y-113647663D01*
X152890861Y-113546229D01*
X152856760Y-113479301D01*
X152745690Y-113326427D01*
X152612073Y-113192810D01*
X152459199Y-113081740D01*
X152450077Y-113077092D01*
X152290836Y-112995954D01*
X152216472Y-112971791D01*
X152169195Y-112956430D01*
X152111521Y-112916993D01*
X152084323Y-112852634D01*
X152096238Y-112783788D01*
X152143482Y-112732312D01*
X152169194Y-112720569D01*
X152290832Y-112681047D01*
X152459199Y-112595260D01*
X152612073Y-112484190D01*
X152745690Y-112350573D01*
X152856760Y-112197699D01*
X152942547Y-112029332D01*
X153000940Y-111849618D01*
X153008090Y-111804475D01*
X153030500Y-111662986D01*
X153030500Y-111474013D01*
X155709500Y-111474013D01*
X155709500Y-111662986D01*
X155739059Y-111849618D01*
X155797454Y-112029336D01*
X155883240Y-112197699D01*
X155994310Y-112350573D01*
X156127927Y-112484190D01*
X156280801Y-112595260D01*
X156297468Y-112603752D01*
X156449163Y-112681045D01*
X156449165Y-112681045D01*
X156449168Y-112681047D01*
X156515193Y-112702500D01*
X156570803Y-112720569D01*
X156628478Y-112760007D01*
X156655676Y-112824366D01*
X156643761Y-112893212D01*
X156596516Y-112944688D01*
X156570803Y-112956431D01*
X156449163Y-112995954D01*
X156280800Y-113081740D01*
X156211521Y-113132075D01*
X156127927Y-113192810D01*
X156127925Y-113192812D01*
X156127924Y-113192812D01*
X155994312Y-113326424D01*
X155994312Y-113326425D01*
X155994310Y-113326427D01*
X155957741Y-113376760D01*
X155883240Y-113479300D01*
X155797454Y-113647663D01*
X155739059Y-113827381D01*
X155709500Y-114014013D01*
X155709500Y-114202986D01*
X155739059Y-114389618D01*
X155797454Y-114569336D01*
X155848529Y-114669575D01*
X155883240Y-114737699D01*
X155994310Y-114890573D01*
X156127927Y-115024190D01*
X156280801Y-115135260D01*
X156360347Y-115175790D01*
X156449163Y-115221045D01*
X156449165Y-115221045D01*
X156449168Y-115221047D01*
X156510494Y-115240973D01*
X156573111Y-115261319D01*
X156630786Y-115300757D01*
X156657984Y-115365116D01*
X156646069Y-115433962D01*
X156598824Y-115485438D01*
X156573111Y-115497181D01*
X156449163Y-115537454D01*
X156280800Y-115623240D01*
X156195082Y-115685519D01*
X156127927Y-115734310D01*
X156127925Y-115734312D01*
X156127924Y-115734312D01*
X155994312Y-115867924D01*
X155994312Y-115867925D01*
X155994310Y-115867927D01*
X155972721Y-115897642D01*
X155883240Y-116020800D01*
X155797454Y-116189163D01*
X155739059Y-116368881D01*
X155709500Y-116555513D01*
X155709500Y-116744486D01*
X155739059Y-116931118D01*
X155797454Y-117110836D01*
X155867853Y-117249000D01*
X155883240Y-117279199D01*
X155994310Y-117432073D01*
X156127927Y-117565690D01*
X156280801Y-117676760D01*
X156360347Y-117717290D01*
X156449163Y-117762545D01*
X156449165Y-117762545D01*
X156449168Y-117762547D01*
X156545497Y-117793846D01*
X156628881Y-117820940D01*
X156815514Y-117850500D01*
X156815519Y-117850500D01*
X157004486Y-117850500D01*
X157191118Y-117820940D01*
X157198612Y-117818505D01*
X157370832Y-117762547D01*
X157539199Y-117676760D01*
X157692073Y-117565690D01*
X157825690Y-117432073D01*
X157936760Y-117279199D01*
X158022547Y-117110832D01*
X158080940Y-116931118D01*
X158109965Y-116747861D01*
X158110500Y-116744486D01*
X158110500Y-116555513D01*
X158080940Y-116368881D01*
X158022545Y-116189163D01*
X157977290Y-116100347D01*
X157936760Y-116020801D01*
X157825690Y-115867927D01*
X157692073Y-115734310D01*
X157539199Y-115623240D01*
X157370836Y-115537454D01*
X157246888Y-115497181D01*
X157189213Y-115457743D01*
X157162015Y-115393384D01*
X157173930Y-115324538D01*
X157221174Y-115273062D01*
X157246888Y-115261319D01*
X157252222Y-115259586D01*
X157370832Y-115221047D01*
X157539199Y-115135260D01*
X157692073Y-115024190D01*
X157825690Y-114890573D01*
X157936760Y-114737699D01*
X158022547Y-114569332D01*
X158080940Y-114389618D01*
X158088246Y-114343489D01*
X158110500Y-114202986D01*
X158110500Y-114014012D01*
X158110451Y-114013703D01*
X158110451Y-114013702D01*
X158108151Y-113999182D01*
X162012000Y-113999182D01*
X162012000Y-114220817D01*
X162046668Y-114439707D01*
X162115156Y-114650488D01*
X162201220Y-114819397D01*
X162215770Y-114847953D01*
X162346038Y-115027251D01*
X162502749Y-115183962D01*
X162682047Y-115314230D01*
X162702278Y-115324538D01*
X162879511Y-115414843D01*
X162879513Y-115414843D01*
X162879516Y-115414845D01*
X162987545Y-115449946D01*
X163090292Y-115483331D01*
X163309183Y-115518000D01*
X163309188Y-115518000D01*
X163530817Y-115518000D01*
X163749707Y-115483331D01*
X163762852Y-115479060D01*
X163960484Y-115414845D01*
X164157953Y-115314230D01*
X164337251Y-115183962D01*
X164378306Y-115142906D01*
X164439627Y-115109422D01*
X164509318Y-115114406D01*
X164565252Y-115156276D01*
X164582168Y-115187255D01*
X164609145Y-115259586D01*
X164609149Y-115259593D01*
X164695309Y-115374687D01*
X164695312Y-115374690D01*
X164810406Y-115460850D01*
X164810413Y-115460854D01*
X164945120Y-115511096D01*
X164945127Y-115511098D01*
X165004655Y-115517499D01*
X165004672Y-115517500D01*
X165710000Y-115517500D01*
X165710000Y-114664256D01*
X165726479Y-114673771D01*
X165880350Y-114715000D01*
X166039650Y-114715000D01*
X166193521Y-114673771D01*
X166210000Y-114664256D01*
X166210000Y-115517500D01*
X166915328Y-115517500D01*
X166915344Y-115517499D01*
X166974872Y-115511098D01*
X166974879Y-115511096D01*
X167109586Y-115460854D01*
X167109593Y-115460850D01*
X167224687Y-115374690D01*
X167224690Y-115374687D01*
X167310850Y-115259593D01*
X167310854Y-115259586D01*
X167361096Y-115124879D01*
X167361098Y-115124872D01*
X167367499Y-115065344D01*
X167367500Y-115065327D01*
X167367500Y-114360000D01*
X166514257Y-114360000D01*
X166523771Y-114343521D01*
X166565000Y-114189650D01*
X166565000Y-114030350D01*
X166523771Y-113876479D01*
X166514257Y-113860000D01*
X167367500Y-113860000D01*
X167367500Y-113154672D01*
X167367499Y-113154655D01*
X167361098Y-113095127D01*
X167361096Y-113095120D01*
X167310854Y-112960413D01*
X167310850Y-112960406D01*
X167224690Y-112845312D01*
X167224687Y-112845309D01*
X167109593Y-112759149D01*
X167109586Y-112759145D01*
X166974879Y-112708903D01*
X166974872Y-112708901D01*
X166915344Y-112702500D01*
X166210000Y-112702500D01*
X166210000Y-113555743D01*
X166193521Y-113546229D01*
X166039650Y-113505000D01*
X165880350Y-113505000D01*
X165726479Y-113546229D01*
X165710000Y-113555743D01*
X165710000Y-112702500D01*
X165004655Y-112702500D01*
X164945127Y-112708901D01*
X164945120Y-112708903D01*
X164810413Y-112759145D01*
X164810406Y-112759149D01*
X164695312Y-112845309D01*
X164695309Y-112845312D01*
X164609149Y-112960406D01*
X164609145Y-112960413D01*
X164582168Y-113032744D01*
X164540297Y-113088678D01*
X164474832Y-113113095D01*
X164406559Y-113098243D01*
X164378305Y-113077092D01*
X164337253Y-113036040D01*
X164337251Y-113036038D01*
X164157953Y-112905770D01*
X164143312Y-112898310D01*
X163960488Y-112805156D01*
X163749707Y-112736668D01*
X163530817Y-112702000D01*
X163530812Y-112702000D01*
X163309188Y-112702000D01*
X163309183Y-112702000D01*
X163090292Y-112736668D01*
X162879511Y-112805156D01*
X162682046Y-112905770D01*
X162580981Y-112979199D01*
X162502749Y-113036038D01*
X162502747Y-113036040D01*
X162502746Y-113036040D01*
X162346040Y-113192746D01*
X162346040Y-113192747D01*
X162346038Y-113192749D01*
X162305146Y-113249032D01*
X162215770Y-113372046D01*
X162115156Y-113569511D01*
X162046668Y-113780292D01*
X162012000Y-113999182D01*
X158108151Y-113999182D01*
X158080940Y-113827381D01*
X158022545Y-113647663D01*
X157970861Y-113546229D01*
X157936760Y-113479301D01*
X157825690Y-113326427D01*
X157692073Y-113192810D01*
X157539199Y-113081740D01*
X157530077Y-113077092D01*
X157370836Y-112995954D01*
X157296472Y-112971791D01*
X157249195Y-112956430D01*
X157191521Y-112916993D01*
X157164323Y-112852634D01*
X157176238Y-112783788D01*
X157223482Y-112732312D01*
X157249194Y-112720569D01*
X157370832Y-112681047D01*
X157539199Y-112595260D01*
X157692073Y-112484190D01*
X157825690Y-112350573D01*
X157936760Y-112197699D01*
X158022547Y-112029332D01*
X158080940Y-111849618D01*
X158088090Y-111804475D01*
X158110500Y-111662986D01*
X158110500Y-111474013D01*
X158080940Y-111287381D01*
X158022545Y-111107663D01*
X157936759Y-110939300D01*
X157825690Y-110786427D01*
X157692073Y-110652810D01*
X157539199Y-110541740D01*
X157370836Y-110455954D01*
X157191118Y-110397559D01*
X157004486Y-110368000D01*
X157004481Y-110368000D01*
X156815519Y-110368000D01*
X156815514Y-110368000D01*
X156628881Y-110397559D01*
X156449163Y-110455954D01*
X156280800Y-110541740D01*
X156193579Y-110605110D01*
X156127927Y-110652810D01*
X156127925Y-110652812D01*
X156127924Y-110652812D01*
X155994312Y-110786424D01*
X155994312Y-110786425D01*
X155994310Y-110786427D01*
X155946610Y-110852079D01*
X155883240Y-110939300D01*
X155797454Y-111107663D01*
X155739059Y-111287381D01*
X155709500Y-111474013D01*
X153030500Y-111474013D01*
X153000940Y-111287381D01*
X152942545Y-111107663D01*
X152856759Y-110939300D01*
X152745690Y-110786427D01*
X152612073Y-110652810D01*
X152459199Y-110541740D01*
X152290836Y-110455954D01*
X152111118Y-110397559D01*
X151924486Y-110368000D01*
X151924481Y-110368000D01*
X151735519Y-110368000D01*
X151735514Y-110368000D01*
X151548881Y-110397559D01*
X151369163Y-110455954D01*
X151200800Y-110541740D01*
X151113579Y-110605110D01*
X151047927Y-110652810D01*
X151047925Y-110652812D01*
X151047924Y-110652812D01*
X150914312Y-110786424D01*
X150914312Y-110786425D01*
X150914310Y-110786427D01*
X150866610Y-110852079D01*
X150803240Y-110939300D01*
X150717454Y-111107663D01*
X150659059Y-111287381D01*
X150629500Y-111474013D01*
X149032500Y-111474013D01*
X149032500Y-111469139D01*
X149001413Y-111272864D01*
X148947738Y-111107668D01*
X148940006Y-111083870D01*
X148940005Y-111083867D01*
X148866344Y-110939301D01*
X148849787Y-110906806D01*
X148732981Y-110746036D01*
X148592464Y-110605519D01*
X148431694Y-110488713D01*
X148275218Y-110408984D01*
X148224423Y-110361010D01*
X148207628Y-110293189D01*
X148230165Y-110227054D01*
X148275218Y-110188015D01*
X148431694Y-110108287D01*
X148592464Y-109991481D01*
X148732981Y-109850964D01*
X148849787Y-109690194D01*
X148940005Y-109513132D01*
X149001413Y-109324136D01*
X149032500Y-109127861D01*
X149032500Y-108929139D01*
X149001413Y-108732864D01*
X148940005Y-108543868D01*
X148940005Y-108543867D01*
X148849786Y-108366805D01*
X148732981Y-108206036D01*
X148592464Y-108065519D01*
X148431694Y-107948713D01*
X148274667Y-107868703D01*
X148223872Y-107820729D01*
X148207077Y-107752908D01*
X148229614Y-107686773D01*
X148274669Y-107647734D01*
X148431422Y-107567864D01*
X148468716Y-107540768D01*
X147854095Y-106926147D01*
X147941571Y-106902708D01*
X148042930Y-106844189D01*
X148125689Y-106761430D01*
X148184208Y-106660071D01*
X148207647Y-106572594D01*
X148822268Y-107187215D01*
X148849362Y-107149925D01*
X148939542Y-106972937D01*
X149000924Y-106784023D01*
X149000924Y-106784020D01*
X149004858Y-106759182D01*
X162061573Y-106759182D01*
X162061573Y-106980817D01*
X162096241Y-107199707D01*
X162164729Y-107410488D01*
X162244917Y-107567864D01*
X162265343Y-107607953D01*
X162395611Y-107787251D01*
X162552322Y-107943962D01*
X162731620Y-108074230D01*
X162824917Y-108121767D01*
X162929084Y-108174843D01*
X162929086Y-108174843D01*
X162929089Y-108174845D01*
X163042069Y-108211554D01*
X163139865Y-108243331D01*
X163358756Y-108278000D01*
X163358761Y-108278000D01*
X163580390Y-108278000D01*
X163799280Y-108243331D01*
X164010057Y-108174845D01*
X164207526Y-108074230D01*
X164386824Y-107943962D01*
X164427879Y-107902906D01*
X164489200Y-107869422D01*
X164558891Y-107874406D01*
X164614825Y-107916276D01*
X164631741Y-107947255D01*
X164658718Y-108019586D01*
X164658722Y-108019593D01*
X164744882Y-108134687D01*
X164744885Y-108134690D01*
X164859979Y-108220850D01*
X164859986Y-108220854D01*
X164994693Y-108271096D01*
X164994700Y-108271098D01*
X165054228Y-108277499D01*
X165054245Y-108277500D01*
X165759573Y-108277500D01*
X165759573Y-107424256D01*
X165776052Y-107433771D01*
X165929923Y-107475000D01*
X166089223Y-107475000D01*
X166243094Y-107433771D01*
X166259573Y-107424256D01*
X166259573Y-108277500D01*
X166964901Y-108277500D01*
X166964917Y-108277499D01*
X167024445Y-108271098D01*
X167024452Y-108271096D01*
X167159159Y-108220854D01*
X167159166Y-108220850D01*
X167274260Y-108134690D01*
X167274263Y-108134687D01*
X167360423Y-108019593D01*
X167360427Y-108019586D01*
X167410669Y-107884879D01*
X167410671Y-107884872D01*
X167417072Y-107825344D01*
X167417073Y-107825327D01*
X167417073Y-107120000D01*
X166563830Y-107120000D01*
X166573344Y-107103521D01*
X166614573Y-106949650D01*
X166614573Y-106790350D01*
X166573344Y-106636479D01*
X166563830Y-106620000D01*
X167417073Y-106620000D01*
X167417073Y-105914672D01*
X167417072Y-105914655D01*
X167410671Y-105855127D01*
X167410669Y-105855120D01*
X167360427Y-105720413D01*
X167360423Y-105720406D01*
X167274263Y-105605312D01*
X167274260Y-105605309D01*
X167159166Y-105519149D01*
X167159159Y-105519145D01*
X167024452Y-105468903D01*
X167024445Y-105468901D01*
X166964917Y-105462500D01*
X166259573Y-105462500D01*
X166259573Y-106315743D01*
X166243094Y-106306229D01*
X166089223Y-106265000D01*
X165929923Y-106265000D01*
X165776052Y-106306229D01*
X165759573Y-106315743D01*
X165759573Y-105462500D01*
X165054228Y-105462500D01*
X164994700Y-105468901D01*
X164994693Y-105468903D01*
X164859986Y-105519145D01*
X164859979Y-105519149D01*
X164744885Y-105605309D01*
X164744882Y-105605312D01*
X164658722Y-105720406D01*
X164658718Y-105720413D01*
X164631741Y-105792744D01*
X164589870Y-105848678D01*
X164524405Y-105873095D01*
X164456132Y-105858243D01*
X164427878Y-105837092D01*
X164386826Y-105796040D01*
X164386824Y-105796038D01*
X164207526Y-105665770D01*
X164010061Y-105565156D01*
X163799280Y-105496668D01*
X163580390Y-105462000D01*
X163580385Y-105462000D01*
X163358761Y-105462000D01*
X163358756Y-105462000D01*
X163139865Y-105496668D01*
X162929084Y-105565156D01*
X162731619Y-105665770D01*
X162629323Y-105740092D01*
X162552322Y-105796038D01*
X162552320Y-105796040D01*
X162552319Y-105796040D01*
X162395613Y-105952746D01*
X162395613Y-105952747D01*
X162395611Y-105952749D01*
X162358471Y-106003868D01*
X162265343Y-106132046D01*
X162164729Y-106329511D01*
X162096241Y-106540292D01*
X162061573Y-106759182D01*
X149004858Y-106759182D01*
X149008702Y-106734918D01*
X149032000Y-106587821D01*
X149032000Y-106389178D01*
X149000924Y-106192979D01*
X149000924Y-106192976D01*
X148939542Y-106004062D01*
X148849358Y-105827067D01*
X148822268Y-105789783D01*
X148207647Y-106404404D01*
X148184208Y-106316929D01*
X148125689Y-106215570D01*
X148042930Y-106132811D01*
X147941571Y-106074292D01*
X147854094Y-106050852D01*
X148468716Y-105436231D01*
X148468715Y-105436230D01*
X148431432Y-105409141D01*
X148274668Y-105329265D01*
X148223872Y-105281290D01*
X148207077Y-105213469D01*
X148229615Y-105147334D01*
X148274667Y-105108296D01*
X148431694Y-105028287D01*
X148592464Y-104911481D01*
X148732981Y-104770964D01*
X148849787Y-104610194D01*
X148940005Y-104433132D01*
X149001413Y-104244136D01*
X149032500Y-104047861D01*
X149032500Y-103849139D01*
X149001413Y-103652864D01*
X148940005Y-103463868D01*
X148940005Y-103463867D01*
X148849786Y-103286805D01*
X148732981Y-103126036D01*
X148592464Y-102985519D01*
X148431694Y-102868713D01*
X148412973Y-102859174D01*
X148254632Y-102778494D01*
X148254629Y-102778493D01*
X148065637Y-102717087D01*
X147967498Y-102701543D01*
X147869361Y-102686000D01*
X147670639Y-102686000D01*
X147605214Y-102696362D01*
X147474362Y-102717087D01*
X147285370Y-102778493D01*
X147285367Y-102778494D01*
X147108305Y-102868713D01*
X146947533Y-102985521D01*
X146807021Y-103126033D01*
X146690213Y-103286805D01*
X146599994Y-103463867D01*
X146599993Y-103463870D01*
X146538587Y-103652862D01*
X146538587Y-103652864D01*
X146507500Y-103849139D01*
X133792500Y-103849139D01*
X133761413Y-103652864D01*
X133700005Y-103463868D01*
X133700005Y-103463867D01*
X133609786Y-103286805D01*
X133492981Y-103126036D01*
X133352464Y-102985519D01*
X133191694Y-102868713D01*
X133172973Y-102859174D01*
X133014632Y-102778494D01*
X133014629Y-102778493D01*
X132825637Y-102717087D01*
X132727498Y-102701543D01*
X132629361Y-102686000D01*
X132430639Y-102686000D01*
X132365214Y-102696362D01*
X132234362Y-102717087D01*
X132045370Y-102778493D01*
X132045367Y-102778494D01*
X131868305Y-102868713D01*
X131707533Y-102985521D01*
X131567021Y-103126033D01*
X131450213Y-103286805D01*
X131359994Y-103463867D01*
X131359993Y-103463870D01*
X131298587Y-103652862D01*
X131298587Y-103652864D01*
X131267500Y-103849139D01*
X131267500Y-104047861D01*
X131272599Y-104080052D01*
X131298587Y-104244137D01*
X131359993Y-104433129D01*
X131359994Y-104433132D01*
X131450213Y-104610194D01*
X131567019Y-104770964D01*
X131707536Y-104911481D01*
X131868306Y-105028287D01*
X131986832Y-105088679D01*
X132024780Y-105108015D01*
X132075576Y-105155990D01*
X132092371Y-105223811D01*
X132069833Y-105289946D01*
X132024780Y-105328985D01*
X131868305Y-105408713D01*
X131707533Y-105525521D01*
X131567021Y-105666033D01*
X131450213Y-105826805D01*
X131359994Y-106003867D01*
X131359993Y-106003870D01*
X131298587Y-106192862D01*
X131267500Y-106389139D01*
X131267500Y-106587860D01*
X131298587Y-106784137D01*
X131359993Y-106973129D01*
X131359994Y-106973132D01*
X131426432Y-107103521D01*
X131450213Y-107150194D01*
X131567019Y-107310964D01*
X131707536Y-107451481D01*
X131868306Y-107568287D01*
X131946155Y-107607953D01*
X132024780Y-107648015D01*
X132075576Y-107695990D01*
X132092371Y-107763811D01*
X132069833Y-107829946D01*
X132024780Y-107868985D01*
X131868305Y-107948713D01*
X131707533Y-108065521D01*
X131567021Y-108206033D01*
X131450213Y-108366805D01*
X131359994Y-108543867D01*
X131359993Y-108543870D01*
X131298587Y-108732862D01*
X131298587Y-108732864D01*
X131267500Y-108929139D01*
X131267500Y-109127861D01*
X131268190Y-109132216D01*
X131298587Y-109324137D01*
X131359993Y-109513129D01*
X131359994Y-109513132D01*
X131450213Y-109690194D01*
X131567019Y-109850964D01*
X131707536Y-109991481D01*
X131868306Y-110108287D01*
X131986832Y-110168679D01*
X132024780Y-110188015D01*
X132075576Y-110235990D01*
X132092371Y-110303811D01*
X132069833Y-110369946D01*
X132024780Y-110408985D01*
X131868305Y-110488713D01*
X131707533Y-110605521D01*
X131567021Y-110746033D01*
X131450213Y-110906805D01*
X131359994Y-111083867D01*
X131359993Y-111083870D01*
X131298587Y-111272862D01*
X131290608Y-111323240D01*
X131267500Y-111469139D01*
X131267500Y-111667861D01*
X131269697Y-111681731D01*
X131260740Y-111751024D01*
X131215743Y-111804475D01*
X131148991Y-111825113D01*
X131081677Y-111806387D01*
X131059542Y-111788807D01*
X127821819Y-108551084D01*
X127788334Y-108489761D01*
X127785500Y-108463403D01*
X127785500Y-104399499D01*
X127805185Y-104332460D01*
X127857989Y-104286705D01*
X127909500Y-104275499D01*
X128082871Y-104275499D01*
X128082872Y-104275499D01*
X128142483Y-104269091D01*
X128277331Y-104218796D01*
X128392546Y-104132546D01*
X128478796Y-104017331D01*
X128529091Y-103882483D01*
X128535500Y-103822873D01*
X128535499Y-102027128D01*
X128529091Y-101967517D01*
X128527810Y-101964083D01*
X128478797Y-101832671D01*
X128478793Y-101832664D01*
X128392547Y-101717455D01*
X128392544Y-101717452D01*
X128300792Y-101648766D01*
X128258921Y-101592832D01*
X128253937Y-101523141D01*
X128287423Y-101461818D01*
X128348746Y-101428334D01*
X128375103Y-101425500D01*
X167575500Y-101425500D01*
X167642539Y-101445185D01*
X167688294Y-101497989D01*
X167699500Y-101549500D01*
X167699500Y-166375500D01*
X167679815Y-166442539D01*
X167627011Y-166488294D01*
X167575500Y-166499500D01*
X110674500Y-166499500D01*
X110607461Y-166479815D01*
X110561706Y-166427011D01*
X110550500Y-166375500D01*
X110550500Y-157253389D01*
X113704500Y-157253389D01*
X113704500Y-157426611D01*
X113731598Y-157597701D01*
X113785127Y-157762445D01*
X113863768Y-157916788D01*
X113965586Y-158056928D01*
X114088072Y-158179414D01*
X114228212Y-158281232D01*
X114382555Y-158359873D01*
X114547299Y-158413402D01*
X114718389Y-158440500D01*
X114718390Y-158440500D01*
X114891610Y-158440500D01*
X114891611Y-158440500D01*
X115062701Y-158413402D01*
X115227445Y-158359873D01*
X115381788Y-158281232D01*
X115521928Y-158179414D01*
X115644414Y-158056928D01*
X115746232Y-157916788D01*
X115824873Y-157762445D01*
X115878402Y-157597701D01*
X115905500Y-157426611D01*
X115905500Y-157253389D01*
X115895854Y-157192486D01*
X117634500Y-157192486D01*
X117634500Y-157487513D01*
X117666571Y-157731113D01*
X117673007Y-157779993D01*
X117747212Y-158056930D01*
X117749361Y-158064951D01*
X117749364Y-158064961D01*
X117862254Y-158337500D01*
X117862258Y-158337510D01*
X118009761Y-158592993D01*
X118189352Y-158827040D01*
X118189358Y-158827047D01*
X118397952Y-159035641D01*
X118397959Y-159035647D01*
X118632006Y-159215238D01*
X118887489Y-159362741D01*
X118887490Y-159362741D01*
X118887493Y-159362743D01*
X119160048Y-159475639D01*
X119445007Y-159551993D01*
X119737494Y-159590500D01*
X119737501Y-159590500D01*
X120032499Y-159590500D01*
X120032506Y-159590500D01*
X120324993Y-159551993D01*
X120609952Y-159475639D01*
X120882507Y-159362743D01*
X121137994Y-159215238D01*
X121372042Y-159035646D01*
X121580646Y-158827042D01*
X121760238Y-158592994D01*
X121907743Y-158337507D01*
X122020639Y-158064952D01*
X122096993Y-157779993D01*
X122135500Y-157487506D01*
X122135500Y-157253389D01*
X123864500Y-157253389D01*
X123864500Y-157426611D01*
X123891598Y-157597701D01*
X123945127Y-157762445D01*
X124023768Y-157916788D01*
X124125586Y-158056928D01*
X124248072Y-158179414D01*
X124388212Y-158281232D01*
X124542555Y-158359873D01*
X124707299Y-158413402D01*
X124878389Y-158440500D01*
X124878390Y-158440500D01*
X125051610Y-158440500D01*
X125051611Y-158440500D01*
X125222701Y-158413402D01*
X125387445Y-158359873D01*
X125541788Y-158281232D01*
X125681928Y-158179414D01*
X125804414Y-158056928D01*
X125906232Y-157916788D01*
X125984873Y-157762445D01*
X126038402Y-157597701D01*
X126065500Y-157426611D01*
X126065500Y-157253389D01*
X132954500Y-157253389D01*
X132954500Y-157426611D01*
X132981598Y-157597701D01*
X133035127Y-157762445D01*
X133113768Y-157916788D01*
X133215586Y-158056928D01*
X133338072Y-158179414D01*
X133478212Y-158281232D01*
X133632555Y-158359873D01*
X133797299Y-158413402D01*
X133968389Y-158440500D01*
X133968390Y-158440500D01*
X134141610Y-158440500D01*
X134141611Y-158440500D01*
X134312701Y-158413402D01*
X134477445Y-158359873D01*
X134631788Y-158281232D01*
X134771928Y-158179414D01*
X134894414Y-158056928D01*
X134996232Y-157916788D01*
X135074873Y-157762445D01*
X135128402Y-157597701D01*
X135155500Y-157426611D01*
X135155500Y-157253389D01*
X135145854Y-157192486D01*
X136884500Y-157192486D01*
X136884500Y-157487513D01*
X136916571Y-157731113D01*
X136923007Y-157779993D01*
X136997212Y-158056930D01*
X136999361Y-158064951D01*
X136999364Y-158064961D01*
X137112254Y-158337500D01*
X137112258Y-158337510D01*
X137259761Y-158592993D01*
X137439352Y-158827040D01*
X137439358Y-158827047D01*
X137647952Y-159035641D01*
X137647959Y-159035647D01*
X137882006Y-159215238D01*
X138137489Y-159362741D01*
X138137490Y-159362741D01*
X138137493Y-159362743D01*
X138410048Y-159475639D01*
X138695007Y-159551993D01*
X138987494Y-159590500D01*
X138987501Y-159590500D01*
X139282499Y-159590500D01*
X139282506Y-159590500D01*
X139574993Y-159551993D01*
X139859952Y-159475639D01*
X140132507Y-159362743D01*
X140387994Y-159215238D01*
X140622042Y-159035646D01*
X140830646Y-158827042D01*
X141010238Y-158592994D01*
X141157743Y-158337507D01*
X141270639Y-158064952D01*
X141346993Y-157779993D01*
X141385500Y-157487506D01*
X141385500Y-157253389D01*
X143114500Y-157253389D01*
X143114500Y-157426611D01*
X143141598Y-157597701D01*
X143195127Y-157762445D01*
X143273768Y-157916788D01*
X143375586Y-158056928D01*
X143498072Y-158179414D01*
X143638212Y-158281232D01*
X143792555Y-158359873D01*
X143957299Y-158413402D01*
X144128389Y-158440500D01*
X144128390Y-158440500D01*
X144301610Y-158440500D01*
X144301611Y-158440500D01*
X144472701Y-158413402D01*
X144637445Y-158359873D01*
X144791788Y-158281232D01*
X144931928Y-158179414D01*
X145054414Y-158056928D01*
X145156232Y-157916788D01*
X145234873Y-157762445D01*
X145288402Y-157597701D01*
X145315500Y-157426611D01*
X145315500Y-157253389D01*
X152204500Y-157253389D01*
X152204500Y-157426611D01*
X152231598Y-157597701D01*
X152285127Y-157762445D01*
X152363768Y-157916788D01*
X152465586Y-158056928D01*
X152588072Y-158179414D01*
X152728212Y-158281232D01*
X152882555Y-158359873D01*
X153047299Y-158413402D01*
X153218389Y-158440500D01*
X153218390Y-158440500D01*
X153391610Y-158440500D01*
X153391611Y-158440500D01*
X153562701Y-158413402D01*
X153727445Y-158359873D01*
X153881788Y-158281232D01*
X154021928Y-158179414D01*
X154144414Y-158056928D01*
X154246232Y-157916788D01*
X154324873Y-157762445D01*
X154378402Y-157597701D01*
X154405500Y-157426611D01*
X154405500Y-157253389D01*
X154395854Y-157192486D01*
X156134500Y-157192486D01*
X156134500Y-157487513D01*
X156166571Y-157731113D01*
X156173007Y-157779993D01*
X156247212Y-158056930D01*
X156249361Y-158064951D01*
X156249364Y-158064961D01*
X156362254Y-158337500D01*
X156362258Y-158337510D01*
X156509761Y-158592993D01*
X156689352Y-158827040D01*
X156689358Y-158827047D01*
X156897952Y-159035641D01*
X156897959Y-159035647D01*
X157132006Y-159215238D01*
X157387489Y-159362741D01*
X157387490Y-159362741D01*
X157387493Y-159362743D01*
X157660048Y-159475639D01*
X157945007Y-159551993D01*
X158237494Y-159590500D01*
X158237501Y-159590500D01*
X158532499Y-159590500D01*
X158532506Y-159590500D01*
X158824993Y-159551993D01*
X159109952Y-159475639D01*
X159382507Y-159362743D01*
X159637994Y-159215238D01*
X159872042Y-159035646D01*
X160080646Y-158827042D01*
X160260238Y-158592994D01*
X160407743Y-158337507D01*
X160520639Y-158064952D01*
X160596993Y-157779993D01*
X160635500Y-157487506D01*
X160635500Y-157253389D01*
X162364500Y-157253389D01*
X162364500Y-157426611D01*
X162391598Y-157597701D01*
X162445127Y-157762445D01*
X162523768Y-157916788D01*
X162625586Y-158056928D01*
X162748072Y-158179414D01*
X162888212Y-158281232D01*
X163042555Y-158359873D01*
X163207299Y-158413402D01*
X163378389Y-158440500D01*
X163378390Y-158440500D01*
X163551610Y-158440500D01*
X163551611Y-158440500D01*
X163722701Y-158413402D01*
X163887445Y-158359873D01*
X164041788Y-158281232D01*
X164181928Y-158179414D01*
X164304414Y-158056928D01*
X164406232Y-157916788D01*
X164484873Y-157762445D01*
X164538402Y-157597701D01*
X164565500Y-157426611D01*
X164565500Y-157253389D01*
X164538402Y-157082299D01*
X164484873Y-156917555D01*
X164406232Y-156763212D01*
X164304414Y-156623072D01*
X164181928Y-156500586D01*
X164041788Y-156398768D01*
X163887445Y-156320127D01*
X163722701Y-156266598D01*
X163722699Y-156266597D01*
X163722698Y-156266597D01*
X163591271Y-156245781D01*
X163551611Y-156239500D01*
X163378389Y-156239500D01*
X163338728Y-156245781D01*
X163207302Y-156266597D01*
X163042552Y-156320128D01*
X162888211Y-156398768D01*
X162832115Y-156439525D01*
X162748072Y-156500586D01*
X162748070Y-156500588D01*
X162748069Y-156500588D01*
X162625588Y-156623069D01*
X162625588Y-156623070D01*
X162625586Y-156623072D01*
X162581859Y-156683256D01*
X162523768Y-156763211D01*
X162445128Y-156917552D01*
X162391597Y-157082302D01*
X162364500Y-157253389D01*
X160635500Y-157253389D01*
X160635500Y-157192494D01*
X160596993Y-156900007D01*
X160520639Y-156615048D01*
X160407743Y-156342493D01*
X160357604Y-156255650D01*
X160260238Y-156087006D01*
X160080647Y-155852959D01*
X160080641Y-155852952D01*
X159872047Y-155644358D01*
X159872040Y-155644352D01*
X159637993Y-155464761D01*
X159382510Y-155317258D01*
X159382500Y-155317254D01*
X159109961Y-155204364D01*
X159109954Y-155204362D01*
X159109952Y-155204361D01*
X158824993Y-155128007D01*
X158776113Y-155121571D01*
X158532513Y-155089500D01*
X158532506Y-155089500D01*
X158237494Y-155089500D01*
X158237486Y-155089500D01*
X157959085Y-155126153D01*
X157945007Y-155128007D01*
X157770861Y-155174669D01*
X157660048Y-155204361D01*
X157660038Y-155204364D01*
X157387499Y-155317254D01*
X157387489Y-155317258D01*
X157132006Y-155464761D01*
X156897959Y-155644352D01*
X156897952Y-155644358D01*
X156689358Y-155852952D01*
X156689352Y-155852959D01*
X156509761Y-156087006D01*
X156362258Y-156342489D01*
X156362254Y-156342499D01*
X156249364Y-156615038D01*
X156249361Y-156615048D01*
X156173008Y-156900004D01*
X156173006Y-156900015D01*
X156134500Y-157192486D01*
X154395854Y-157192486D01*
X154378402Y-157082299D01*
X154324873Y-156917555D01*
X154246232Y-156763212D01*
X154144414Y-156623072D01*
X154091882Y-156570540D01*
X154058397Y-156509217D01*
X154063381Y-156439525D01*
X154105253Y-156383592D01*
X154170717Y-156359175D01*
X154198961Y-156360386D01*
X154449072Y-156400000D01*
X154700928Y-156400000D01*
X154949669Y-156360602D01*
X155189184Y-156282780D01*
X155413575Y-156168446D01*
X155413581Y-156168442D01*
X155515697Y-156094250D01*
X155515698Y-156094250D01*
X154899025Y-155477578D01*
X154930258Y-155464641D01*
X155053097Y-155382563D01*
X155157563Y-155278097D01*
X155239641Y-155155258D01*
X155252577Y-155124025D01*
X155869250Y-155740698D01*
X155869250Y-155740697D01*
X155943442Y-155638581D01*
X155943446Y-155638575D01*
X156057780Y-155414184D01*
X156135602Y-155174669D01*
X156175000Y-154925928D01*
X156175000Y-154674071D01*
X156135602Y-154425330D01*
X156057780Y-154185815D01*
X155943442Y-153961416D01*
X155869250Y-153859301D01*
X155869250Y-153859300D01*
X155252577Y-154475973D01*
X155239641Y-154444742D01*
X155157563Y-154321903D01*
X155053097Y-154217437D01*
X154930258Y-154135359D01*
X154899024Y-154122421D01*
X155515698Y-153505748D01*
X155413583Y-153431557D01*
X155189184Y-153317219D01*
X154949669Y-153239397D01*
X154700928Y-153200000D01*
X154449072Y-153200000D01*
X154200330Y-153239397D01*
X153960815Y-153317219D01*
X153736413Y-153431559D01*
X153634301Y-153505747D01*
X153634300Y-153505748D01*
X154250974Y-154122421D01*
X154219742Y-154135359D01*
X154096903Y-154217437D01*
X153992437Y-154321903D01*
X153910359Y-154444742D01*
X153897421Y-154475974D01*
X153280748Y-153859300D01*
X153280747Y-153859301D01*
X153206559Y-153961413D01*
X153092219Y-154185815D01*
X153014397Y-154425330D01*
X152975000Y-154674071D01*
X152975000Y-154925928D01*
X153014397Y-155174669D01*
X153092219Y-155414184D01*
X153206557Y-155638583D01*
X153280748Y-155740697D01*
X153280748Y-155740698D01*
X153897421Y-155124024D01*
X153910359Y-155155258D01*
X153992437Y-155278097D01*
X154096903Y-155382563D01*
X154219742Y-155464641D01*
X154250974Y-155477577D01*
X153634300Y-156094250D01*
X153636598Y-156123449D01*
X153622233Y-156191827D01*
X153573181Y-156241583D01*
X153505016Y-156256921D01*
X153493583Y-156255650D01*
X153391611Y-156239500D01*
X153218389Y-156239500D01*
X153178728Y-156245781D01*
X153047302Y-156266597D01*
X152882552Y-156320128D01*
X152728211Y-156398768D01*
X152672115Y-156439525D01*
X152588072Y-156500586D01*
X152588070Y-156500588D01*
X152588069Y-156500588D01*
X152465588Y-156623069D01*
X152465588Y-156623070D01*
X152465586Y-156623072D01*
X152421859Y-156683256D01*
X152363768Y-156763211D01*
X152285128Y-156917552D01*
X152231597Y-157082302D01*
X152204500Y-157253389D01*
X145315500Y-157253389D01*
X145288402Y-157082299D01*
X145234873Y-156917555D01*
X145156232Y-156763212D01*
X145054414Y-156623072D01*
X144931928Y-156500586D01*
X144791788Y-156398768D01*
X144637445Y-156320127D01*
X144472701Y-156266598D01*
X144472699Y-156266597D01*
X144472698Y-156266597D01*
X144341271Y-156245781D01*
X144301611Y-156239500D01*
X144128389Y-156239500D01*
X144088728Y-156245781D01*
X143957302Y-156266597D01*
X143792552Y-156320128D01*
X143638211Y-156398768D01*
X143582115Y-156439525D01*
X143498072Y-156500586D01*
X143498070Y-156500588D01*
X143498069Y-156500588D01*
X143375588Y-156623069D01*
X143375588Y-156623070D01*
X143375586Y-156623072D01*
X143331859Y-156683256D01*
X143273768Y-156763211D01*
X143195128Y-156917552D01*
X143141597Y-157082302D01*
X143114500Y-157253389D01*
X141385500Y-157253389D01*
X141385500Y-157192494D01*
X141346993Y-156900007D01*
X141270639Y-156615048D01*
X141157743Y-156342493D01*
X141107604Y-156255650D01*
X141010238Y-156087006D01*
X140830647Y-155852959D01*
X140830641Y-155852952D01*
X140622047Y-155644358D01*
X140622040Y-155644352D01*
X140387993Y-155464761D01*
X140132510Y-155317258D01*
X140132500Y-155317254D01*
X139859961Y-155204364D01*
X139859954Y-155204362D01*
X139859952Y-155204361D01*
X139574993Y-155128007D01*
X139526113Y-155121571D01*
X139282513Y-155089500D01*
X139282506Y-155089500D01*
X138987494Y-155089500D01*
X138987486Y-155089500D01*
X138709085Y-155126153D01*
X138695007Y-155128007D01*
X138520861Y-155174669D01*
X138410048Y-155204361D01*
X138410038Y-155204364D01*
X138137499Y-155317254D01*
X138137489Y-155317258D01*
X137882006Y-155464761D01*
X137647959Y-155644352D01*
X137647952Y-155644358D01*
X137439358Y-155852952D01*
X137439352Y-155852959D01*
X137259761Y-156087006D01*
X137112258Y-156342489D01*
X137112254Y-156342499D01*
X136999364Y-156615038D01*
X136999361Y-156615048D01*
X136923008Y-156900004D01*
X136923006Y-156900015D01*
X136884500Y-157192486D01*
X135145854Y-157192486D01*
X135128402Y-157082299D01*
X135074873Y-156917555D01*
X134996232Y-156763212D01*
X134894414Y-156623072D01*
X134841882Y-156570540D01*
X134808397Y-156509217D01*
X134813381Y-156439525D01*
X134855253Y-156383592D01*
X134920717Y-156359175D01*
X134948961Y-156360386D01*
X135199072Y-156400000D01*
X135450928Y-156400000D01*
X135699669Y-156360602D01*
X135939184Y-156282780D01*
X136163575Y-156168446D01*
X136163581Y-156168442D01*
X136265697Y-156094250D01*
X136265698Y-156094250D01*
X135649025Y-155477578D01*
X135680258Y-155464641D01*
X135803097Y-155382563D01*
X135907563Y-155278097D01*
X135989641Y-155155258D01*
X136002578Y-155124025D01*
X136619250Y-155740698D01*
X136619250Y-155740697D01*
X136693442Y-155638581D01*
X136693446Y-155638575D01*
X136807780Y-155414184D01*
X136885602Y-155174669D01*
X136925000Y-154925928D01*
X136925000Y-154674071D01*
X136885602Y-154425330D01*
X136807780Y-154185815D01*
X136693442Y-153961416D01*
X136619250Y-153859301D01*
X136619250Y-153859300D01*
X136002577Y-154475973D01*
X135989641Y-154444742D01*
X135907563Y-154321903D01*
X135803097Y-154217437D01*
X135680258Y-154135359D01*
X135649024Y-154122421D01*
X136265698Y-153505748D01*
X136163583Y-153431557D01*
X135939184Y-153317219D01*
X135699669Y-153239397D01*
X135450928Y-153200000D01*
X135199072Y-153200000D01*
X134950330Y-153239397D01*
X134710815Y-153317219D01*
X134486413Y-153431559D01*
X134384301Y-153505747D01*
X134384300Y-153505748D01*
X135000974Y-154122421D01*
X134969742Y-154135359D01*
X134846903Y-154217437D01*
X134742437Y-154321903D01*
X134660359Y-154444742D01*
X134647421Y-154475974D01*
X134030748Y-153859300D01*
X134030747Y-153859301D01*
X133956559Y-153961413D01*
X133842219Y-154185815D01*
X133764397Y-154425330D01*
X133725000Y-154674071D01*
X133725000Y-154925928D01*
X133764397Y-155174669D01*
X133842219Y-155414184D01*
X133956557Y-155638583D01*
X134030748Y-155740697D01*
X134030748Y-155740698D01*
X134647421Y-155124024D01*
X134660359Y-155155258D01*
X134742437Y-155278097D01*
X134846903Y-155382563D01*
X134969742Y-155464641D01*
X135000974Y-155477577D01*
X134384300Y-156094250D01*
X134386598Y-156123449D01*
X134372233Y-156191827D01*
X134323181Y-156241583D01*
X134255016Y-156256921D01*
X134243583Y-156255650D01*
X134141611Y-156239500D01*
X133968389Y-156239500D01*
X133928728Y-156245781D01*
X133797302Y-156266597D01*
X133632552Y-156320128D01*
X133478211Y-156398768D01*
X133422115Y-156439525D01*
X133338072Y-156500586D01*
X133338070Y-156500588D01*
X133338069Y-156500588D01*
X133215588Y-156623069D01*
X133215588Y-156623070D01*
X133215586Y-156623072D01*
X133171859Y-156683256D01*
X133113768Y-156763211D01*
X133035128Y-156917552D01*
X132981597Y-157082302D01*
X132954500Y-157253389D01*
X126065500Y-157253389D01*
X126038402Y-157082299D01*
X125984873Y-156917555D01*
X125906232Y-156763212D01*
X125804414Y-156623072D01*
X125681928Y-156500586D01*
X125541788Y-156398768D01*
X125387445Y-156320127D01*
X125222701Y-156266598D01*
X125222699Y-156266597D01*
X125222698Y-156266597D01*
X125091271Y-156245781D01*
X125051611Y-156239500D01*
X124878389Y-156239500D01*
X124838728Y-156245781D01*
X124707302Y-156266597D01*
X124542552Y-156320128D01*
X124388211Y-156398768D01*
X124332115Y-156439525D01*
X124248072Y-156500586D01*
X124248070Y-156500588D01*
X124248069Y-156500588D01*
X124125588Y-156623069D01*
X124125588Y-156623070D01*
X124125586Y-156623072D01*
X124081859Y-156683256D01*
X124023768Y-156763211D01*
X123945128Y-156917552D01*
X123891597Y-157082302D01*
X123864500Y-157253389D01*
X122135500Y-157253389D01*
X122135500Y-157192494D01*
X122096993Y-156900007D01*
X122020639Y-156615048D01*
X121907743Y-156342493D01*
X121857604Y-156255650D01*
X121760238Y-156087006D01*
X121580647Y-155852959D01*
X121580641Y-155852952D01*
X121372047Y-155644358D01*
X121372040Y-155644352D01*
X121137993Y-155464761D01*
X120882510Y-155317258D01*
X120882500Y-155317254D01*
X120609961Y-155204364D01*
X120609954Y-155204362D01*
X120609952Y-155204361D01*
X120324993Y-155128007D01*
X120276113Y-155121571D01*
X120032513Y-155089500D01*
X120032506Y-155089500D01*
X119737494Y-155089500D01*
X119737486Y-155089500D01*
X119459085Y-155126153D01*
X119445007Y-155128007D01*
X119270861Y-155174669D01*
X119160048Y-155204361D01*
X119160038Y-155204364D01*
X118887499Y-155317254D01*
X118887489Y-155317258D01*
X118632006Y-155464761D01*
X118397959Y-155644352D01*
X118397952Y-155644358D01*
X118189358Y-155852952D01*
X118189352Y-155852959D01*
X118009761Y-156087006D01*
X117862258Y-156342489D01*
X117862254Y-156342499D01*
X117749364Y-156615038D01*
X117749361Y-156615048D01*
X117673008Y-156900004D01*
X117673006Y-156900015D01*
X117634500Y-157192486D01*
X115895854Y-157192486D01*
X115878402Y-157082299D01*
X115824873Y-156917555D01*
X115746232Y-156763212D01*
X115644414Y-156623072D01*
X115591882Y-156570540D01*
X115558397Y-156509217D01*
X115563381Y-156439525D01*
X115605253Y-156383592D01*
X115670717Y-156359175D01*
X115698961Y-156360386D01*
X115949072Y-156400000D01*
X116200928Y-156400000D01*
X116449669Y-156360602D01*
X116689184Y-156282780D01*
X116913575Y-156168446D01*
X116913581Y-156168442D01*
X117015697Y-156094250D01*
X117015698Y-156094250D01*
X116399025Y-155477578D01*
X116430258Y-155464641D01*
X116553097Y-155382563D01*
X116657563Y-155278097D01*
X116739641Y-155155258D01*
X116752577Y-155124025D01*
X117369250Y-155740698D01*
X117369250Y-155740697D01*
X117443442Y-155638581D01*
X117443446Y-155638575D01*
X117557780Y-155414184D01*
X117635602Y-155174669D01*
X117675000Y-154925928D01*
X117675000Y-154674071D01*
X117635602Y-154425330D01*
X117557780Y-154185815D01*
X117443442Y-153961416D01*
X117369250Y-153859301D01*
X117369250Y-153859300D01*
X116752577Y-154475973D01*
X116739641Y-154444742D01*
X116657563Y-154321903D01*
X116553097Y-154217437D01*
X116430258Y-154135359D01*
X116399024Y-154122421D01*
X117015698Y-153505748D01*
X116913583Y-153431557D01*
X116689184Y-153317219D01*
X116449669Y-153239397D01*
X116200928Y-153200000D01*
X115949072Y-153200000D01*
X115700330Y-153239397D01*
X115460815Y-153317219D01*
X115236413Y-153431559D01*
X115134301Y-153505747D01*
X115134300Y-153505748D01*
X115750974Y-154122421D01*
X115719742Y-154135359D01*
X115596903Y-154217437D01*
X115492437Y-154321903D01*
X115410359Y-154444742D01*
X115397421Y-154475974D01*
X114780748Y-153859300D01*
X114780747Y-153859301D01*
X114706559Y-153961413D01*
X114592219Y-154185815D01*
X114514397Y-154425330D01*
X114475000Y-154674071D01*
X114475000Y-154925928D01*
X114514397Y-155174669D01*
X114592219Y-155414184D01*
X114706557Y-155638583D01*
X114780748Y-155740697D01*
X114780748Y-155740698D01*
X115397421Y-155124024D01*
X115410359Y-155155258D01*
X115492437Y-155278097D01*
X115596903Y-155382563D01*
X115719742Y-155464641D01*
X115750974Y-155477577D01*
X115134300Y-156094250D01*
X115136598Y-156123449D01*
X115122233Y-156191827D01*
X115073181Y-156241583D01*
X115005016Y-156256921D01*
X114993583Y-156255650D01*
X114891611Y-156239500D01*
X114718389Y-156239500D01*
X114678728Y-156245781D01*
X114547302Y-156266597D01*
X114382552Y-156320128D01*
X114228211Y-156398768D01*
X114172115Y-156439525D01*
X114088072Y-156500586D01*
X114088070Y-156500588D01*
X114088069Y-156500588D01*
X113965588Y-156623069D01*
X113965588Y-156623070D01*
X113965586Y-156623072D01*
X113921859Y-156683256D01*
X113863768Y-156763211D01*
X113785128Y-156917552D01*
X113731597Y-157082302D01*
X113704500Y-157253389D01*
X110550500Y-157253389D01*
X110550500Y-152134038D01*
X120824500Y-152134038D01*
X120824500Y-152385961D01*
X120863910Y-152634785D01*
X120941760Y-152874383D01*
X121056132Y-153098848D01*
X121204201Y-153302649D01*
X121204205Y-153302654D01*
X121382345Y-153480794D01*
X121382350Y-153480798D01*
X121560117Y-153609952D01*
X121586155Y-153628870D01*
X121729184Y-153701747D01*
X121810616Y-153743239D01*
X121810618Y-153743239D01*
X121810621Y-153743241D01*
X122050215Y-153821090D01*
X122299038Y-153860500D01*
X122299039Y-153860500D01*
X122550961Y-153860500D01*
X122550962Y-153860500D01*
X122799785Y-153821090D01*
X123039379Y-153743241D01*
X123263845Y-153628870D01*
X123467656Y-153480793D01*
X123645793Y-153302656D01*
X123793870Y-153098845D01*
X123908241Y-152874379D01*
X123986090Y-152634785D01*
X124025500Y-152385962D01*
X124025500Y-152134038D01*
X140074500Y-152134038D01*
X140074500Y-152385961D01*
X140113910Y-152634785D01*
X140191760Y-152874383D01*
X140306132Y-153098848D01*
X140454201Y-153302649D01*
X140454205Y-153302654D01*
X140632345Y-153480794D01*
X140632350Y-153480798D01*
X140810117Y-153609952D01*
X140836155Y-153628870D01*
X140979184Y-153701747D01*
X141060616Y-153743239D01*
X141060618Y-153743239D01*
X141060621Y-153743241D01*
X141300215Y-153821090D01*
X141549038Y-153860500D01*
X141549039Y-153860500D01*
X141800961Y-153860500D01*
X141800962Y-153860500D01*
X142049785Y-153821090D01*
X142289379Y-153743241D01*
X142513845Y-153628870D01*
X142717656Y-153480793D01*
X142895793Y-153302656D01*
X143043870Y-153098845D01*
X143158241Y-152874379D01*
X143236090Y-152634785D01*
X143275500Y-152385962D01*
X143275500Y-152134038D01*
X159324500Y-152134038D01*
X159324500Y-152385961D01*
X159363910Y-152634785D01*
X159441760Y-152874383D01*
X159556132Y-153098848D01*
X159704201Y-153302649D01*
X159704205Y-153302654D01*
X159882345Y-153480794D01*
X159882350Y-153480798D01*
X160060117Y-153609952D01*
X160086155Y-153628870D01*
X160229184Y-153701747D01*
X160310616Y-153743239D01*
X160310618Y-153743239D01*
X160310621Y-153743241D01*
X160550215Y-153821090D01*
X160799038Y-153860500D01*
X160799039Y-153860500D01*
X161050961Y-153860500D01*
X161050962Y-153860500D01*
X161299785Y-153821090D01*
X161539379Y-153743241D01*
X161763845Y-153628870D01*
X161967656Y-153480793D01*
X162145793Y-153302656D01*
X162293870Y-153098845D01*
X162408241Y-152874379D01*
X162486090Y-152634785D01*
X162525500Y-152385962D01*
X162525500Y-152134038D01*
X162486090Y-151885215D01*
X162408241Y-151645621D01*
X162408239Y-151645618D01*
X162408239Y-151645616D01*
X162366747Y-151564184D01*
X162293870Y-151421155D01*
X162274952Y-151395117D01*
X162145798Y-151217350D01*
X162145794Y-151217345D01*
X161967654Y-151039205D01*
X161967649Y-151039201D01*
X161763848Y-150891132D01*
X161763847Y-150891131D01*
X161763845Y-150891130D01*
X161693747Y-150855413D01*
X161539383Y-150776760D01*
X161299785Y-150698910D01*
X161050962Y-150659500D01*
X160799038Y-150659500D01*
X160674626Y-150679205D01*
X160550214Y-150698910D01*
X160310616Y-150776760D01*
X160086151Y-150891132D01*
X159882350Y-151039201D01*
X159882345Y-151039205D01*
X159704205Y-151217345D01*
X159704201Y-151217350D01*
X159556132Y-151421151D01*
X159441760Y-151645616D01*
X159363910Y-151885214D01*
X159324500Y-152134038D01*
X143275500Y-152134038D01*
X143236090Y-151885215D01*
X143158241Y-151645621D01*
X143158239Y-151645618D01*
X143158239Y-151645616D01*
X143116747Y-151564184D01*
X143043870Y-151421155D01*
X143024952Y-151395117D01*
X142895798Y-151217350D01*
X142895794Y-151217345D01*
X142717654Y-151039205D01*
X142717649Y-151039201D01*
X142513848Y-150891132D01*
X142513847Y-150891131D01*
X142513845Y-150891130D01*
X142443747Y-150855413D01*
X142289383Y-150776760D01*
X142049785Y-150698910D01*
X141800962Y-150659500D01*
X141549038Y-150659500D01*
X141424626Y-150679205D01*
X141300214Y-150698910D01*
X141060616Y-150776760D01*
X140836151Y-150891132D01*
X140632350Y-151039201D01*
X140632345Y-151039205D01*
X140454205Y-151217345D01*
X140454201Y-151217350D01*
X140306132Y-151421151D01*
X140191760Y-151645616D01*
X140113910Y-151885214D01*
X140074500Y-152134038D01*
X124025500Y-152134038D01*
X123986090Y-151885215D01*
X123908241Y-151645621D01*
X123908239Y-151645618D01*
X123908239Y-151645616D01*
X123866747Y-151564184D01*
X123793870Y-151421155D01*
X123774952Y-151395117D01*
X123645798Y-151217350D01*
X123645794Y-151217345D01*
X123467654Y-151039205D01*
X123467649Y-151039201D01*
X123263848Y-150891132D01*
X123263847Y-150891131D01*
X123263845Y-150891130D01*
X123193747Y-150855413D01*
X123039383Y-150776760D01*
X122799785Y-150698910D01*
X122550962Y-150659500D01*
X122299038Y-150659500D01*
X122174626Y-150679205D01*
X122050214Y-150698910D01*
X121810616Y-150776760D01*
X121586151Y-150891132D01*
X121382350Y-151039201D01*
X121382345Y-151039205D01*
X121204205Y-151217345D01*
X121204201Y-151217350D01*
X121056132Y-151421151D01*
X120941760Y-151645616D01*
X120863910Y-151885214D01*
X120824500Y-152134038D01*
X110550500Y-152134038D01*
X110550500Y-137913389D01*
X113704500Y-137913389D01*
X113704500Y-138086611D01*
X113731598Y-138257701D01*
X113785127Y-138422445D01*
X113863768Y-138576788D01*
X113965586Y-138716928D01*
X114088072Y-138839414D01*
X114228212Y-138941232D01*
X114382555Y-139019873D01*
X114547299Y-139073402D01*
X114718389Y-139100500D01*
X114718390Y-139100500D01*
X114891610Y-139100500D01*
X114891611Y-139100500D01*
X115062701Y-139073402D01*
X115227445Y-139019873D01*
X115381788Y-138941232D01*
X115521928Y-138839414D01*
X115644414Y-138716928D01*
X115746232Y-138576788D01*
X115824873Y-138422445D01*
X115878402Y-138257701D01*
X115905500Y-138086611D01*
X115905500Y-137913389D01*
X115895854Y-137852486D01*
X117634500Y-137852486D01*
X117634500Y-138147513D01*
X117666571Y-138391113D01*
X117673007Y-138439993D01*
X117747212Y-138716930D01*
X117749361Y-138724951D01*
X117749364Y-138724961D01*
X117862254Y-138997500D01*
X117862258Y-138997510D01*
X118009761Y-139252993D01*
X118189352Y-139487040D01*
X118189358Y-139487047D01*
X118397952Y-139695641D01*
X118397959Y-139695647D01*
X118632006Y-139875238D01*
X118887489Y-140022741D01*
X118887490Y-140022741D01*
X118887493Y-140022743D01*
X119160048Y-140135639D01*
X119445007Y-140211993D01*
X119737494Y-140250500D01*
X119737501Y-140250500D01*
X120032499Y-140250500D01*
X120032506Y-140250500D01*
X120324993Y-140211993D01*
X120609952Y-140135639D01*
X120882507Y-140022743D01*
X121137994Y-139875238D01*
X121372042Y-139695646D01*
X121580646Y-139487042D01*
X121760238Y-139252994D01*
X121907743Y-138997507D01*
X122020639Y-138724952D01*
X122096993Y-138439993D01*
X122135500Y-138147506D01*
X122135500Y-137913389D01*
X123864500Y-137913389D01*
X123864500Y-138086611D01*
X123891598Y-138257701D01*
X123945127Y-138422445D01*
X124023768Y-138576788D01*
X124125586Y-138716928D01*
X124248072Y-138839414D01*
X124388212Y-138941232D01*
X124542555Y-139019873D01*
X124707299Y-139073402D01*
X124878389Y-139100500D01*
X124878390Y-139100500D01*
X125051610Y-139100500D01*
X125051611Y-139100500D01*
X125222701Y-139073402D01*
X125387445Y-139019873D01*
X125541788Y-138941232D01*
X125681928Y-138839414D01*
X125804414Y-138716928D01*
X125906232Y-138576788D01*
X125984873Y-138422445D01*
X126038402Y-138257701D01*
X126065500Y-138086611D01*
X126065500Y-137913389D01*
X132969500Y-137913389D01*
X132969500Y-138086611D01*
X132996598Y-138257701D01*
X133050127Y-138422445D01*
X133128768Y-138576788D01*
X133230586Y-138716928D01*
X133353072Y-138839414D01*
X133493212Y-138941232D01*
X133647555Y-139019873D01*
X133812299Y-139073402D01*
X133983389Y-139100500D01*
X133983390Y-139100500D01*
X134156610Y-139100500D01*
X134156611Y-139100500D01*
X134327701Y-139073402D01*
X134492445Y-139019873D01*
X134646788Y-138941232D01*
X134786928Y-138839414D01*
X134909414Y-138716928D01*
X135011232Y-138576788D01*
X135089873Y-138422445D01*
X135143402Y-138257701D01*
X135170500Y-138086611D01*
X135170500Y-137913389D01*
X135160854Y-137852486D01*
X136899500Y-137852486D01*
X136899500Y-138147513D01*
X136931571Y-138391113D01*
X136938007Y-138439993D01*
X137012212Y-138716930D01*
X137014361Y-138724951D01*
X137014364Y-138724961D01*
X137127254Y-138997500D01*
X137127258Y-138997510D01*
X137274761Y-139252993D01*
X137454352Y-139487040D01*
X137454358Y-139487047D01*
X137662952Y-139695641D01*
X137662959Y-139695647D01*
X137897006Y-139875238D01*
X138152489Y-140022741D01*
X138152490Y-140022741D01*
X138152493Y-140022743D01*
X138425048Y-140135639D01*
X138710007Y-140211993D01*
X139002494Y-140250500D01*
X139002501Y-140250500D01*
X139297499Y-140250500D01*
X139297506Y-140250500D01*
X139589993Y-140211993D01*
X139874952Y-140135639D01*
X140147507Y-140022743D01*
X140402994Y-139875238D01*
X140637042Y-139695646D01*
X140845646Y-139487042D01*
X141025238Y-139252994D01*
X141172743Y-138997507D01*
X141285639Y-138724952D01*
X141361993Y-138439993D01*
X141400500Y-138147506D01*
X141400500Y-137913389D01*
X143129500Y-137913389D01*
X143129500Y-138086611D01*
X143156598Y-138257701D01*
X143210127Y-138422445D01*
X143288768Y-138576788D01*
X143390586Y-138716928D01*
X143513072Y-138839414D01*
X143653212Y-138941232D01*
X143807555Y-139019873D01*
X143972299Y-139073402D01*
X144143389Y-139100500D01*
X144143390Y-139100500D01*
X144316610Y-139100500D01*
X144316611Y-139100500D01*
X144487701Y-139073402D01*
X144652445Y-139019873D01*
X144806788Y-138941232D01*
X144946928Y-138839414D01*
X145069414Y-138716928D01*
X145171232Y-138576788D01*
X145249873Y-138422445D01*
X145303402Y-138257701D01*
X145330500Y-138086611D01*
X145330500Y-137913389D01*
X152204500Y-137913389D01*
X152204500Y-138086611D01*
X152231598Y-138257701D01*
X152285127Y-138422445D01*
X152363768Y-138576788D01*
X152465586Y-138716928D01*
X152588072Y-138839414D01*
X152728212Y-138941232D01*
X152882555Y-139019873D01*
X153047299Y-139073402D01*
X153218389Y-139100500D01*
X153218390Y-139100500D01*
X153391610Y-139100500D01*
X153391611Y-139100500D01*
X153562701Y-139073402D01*
X153727445Y-139019873D01*
X153881788Y-138941232D01*
X154021928Y-138839414D01*
X154144414Y-138716928D01*
X154246232Y-138576788D01*
X154324873Y-138422445D01*
X154378402Y-138257701D01*
X154405500Y-138086611D01*
X154405500Y-137913389D01*
X154395854Y-137852486D01*
X156134500Y-137852486D01*
X156134500Y-138147513D01*
X156166571Y-138391113D01*
X156173007Y-138439993D01*
X156247212Y-138716930D01*
X156249361Y-138724951D01*
X156249364Y-138724961D01*
X156362254Y-138997500D01*
X156362258Y-138997510D01*
X156509761Y-139252993D01*
X156689352Y-139487040D01*
X156689358Y-139487047D01*
X156897952Y-139695641D01*
X156897959Y-139695647D01*
X157132006Y-139875238D01*
X157387489Y-140022741D01*
X157387490Y-140022741D01*
X157387493Y-140022743D01*
X157660048Y-140135639D01*
X157945007Y-140211993D01*
X158237494Y-140250500D01*
X158237501Y-140250500D01*
X158532499Y-140250500D01*
X158532506Y-140250500D01*
X158824993Y-140211993D01*
X159109952Y-140135639D01*
X159382507Y-140022743D01*
X159637994Y-139875238D01*
X159872042Y-139695646D01*
X160080646Y-139487042D01*
X160260238Y-139252994D01*
X160407743Y-138997507D01*
X160520639Y-138724952D01*
X160596993Y-138439993D01*
X160635500Y-138147506D01*
X160635500Y-137913389D01*
X162364500Y-137913389D01*
X162364500Y-138086611D01*
X162391598Y-138257701D01*
X162445127Y-138422445D01*
X162523768Y-138576788D01*
X162625586Y-138716928D01*
X162748072Y-138839414D01*
X162888212Y-138941232D01*
X163042555Y-139019873D01*
X163207299Y-139073402D01*
X163378389Y-139100500D01*
X163378390Y-139100500D01*
X163551610Y-139100500D01*
X163551611Y-139100500D01*
X163722701Y-139073402D01*
X163887445Y-139019873D01*
X164041788Y-138941232D01*
X164181928Y-138839414D01*
X164304414Y-138716928D01*
X164406232Y-138576788D01*
X164484873Y-138422445D01*
X164538402Y-138257701D01*
X164565500Y-138086611D01*
X164565500Y-137913389D01*
X164538402Y-137742299D01*
X164484873Y-137577555D01*
X164406232Y-137423212D01*
X164304414Y-137283072D01*
X164181928Y-137160586D01*
X164041788Y-137058768D01*
X163887445Y-136980127D01*
X163722701Y-136926598D01*
X163722699Y-136926597D01*
X163722698Y-136926597D01*
X163591271Y-136905781D01*
X163551611Y-136899500D01*
X163378389Y-136899500D01*
X163338728Y-136905781D01*
X163207302Y-136926597D01*
X163042552Y-136980128D01*
X162888211Y-137058768D01*
X162832115Y-137099525D01*
X162748072Y-137160586D01*
X162748070Y-137160588D01*
X162748069Y-137160588D01*
X162625588Y-137283069D01*
X162625588Y-137283070D01*
X162625586Y-137283072D01*
X162581859Y-137343256D01*
X162523768Y-137423211D01*
X162445128Y-137577552D01*
X162391597Y-137742302D01*
X162364500Y-137913389D01*
X160635500Y-137913389D01*
X160635500Y-137852494D01*
X160596993Y-137560007D01*
X160520639Y-137275048D01*
X160407743Y-137002493D01*
X160357604Y-136915650D01*
X160260238Y-136747006D01*
X160080647Y-136512959D01*
X160080641Y-136512952D01*
X159872047Y-136304358D01*
X159872040Y-136304352D01*
X159637993Y-136124761D01*
X159382510Y-135977258D01*
X159382500Y-135977254D01*
X159109961Y-135864364D01*
X159109954Y-135864362D01*
X159109952Y-135864361D01*
X158824993Y-135788007D01*
X158776113Y-135781571D01*
X158532513Y-135749500D01*
X158532506Y-135749500D01*
X158237494Y-135749500D01*
X158237486Y-135749500D01*
X157959085Y-135786153D01*
X157945007Y-135788007D01*
X157770861Y-135834669D01*
X157660048Y-135864361D01*
X157660038Y-135864364D01*
X157387499Y-135977254D01*
X157387489Y-135977258D01*
X157132006Y-136124761D01*
X156897959Y-136304352D01*
X156897952Y-136304358D01*
X156689358Y-136512952D01*
X156689352Y-136512959D01*
X156509761Y-136747006D01*
X156362258Y-137002489D01*
X156362254Y-137002499D01*
X156249364Y-137275038D01*
X156249361Y-137275048D01*
X156173008Y-137560004D01*
X156173006Y-137560015D01*
X156134500Y-137852486D01*
X154395854Y-137852486D01*
X154378402Y-137742299D01*
X154324873Y-137577555D01*
X154246232Y-137423212D01*
X154144414Y-137283072D01*
X154091882Y-137230540D01*
X154058397Y-137169217D01*
X154063381Y-137099525D01*
X154105253Y-137043592D01*
X154170717Y-137019175D01*
X154198961Y-137020386D01*
X154449072Y-137060000D01*
X154700928Y-137060000D01*
X154949669Y-137020602D01*
X155189184Y-136942780D01*
X155413575Y-136828446D01*
X155413581Y-136828442D01*
X155515697Y-136754250D01*
X155515698Y-136754250D01*
X154899025Y-136137578D01*
X154930258Y-136124641D01*
X155053097Y-136042563D01*
X155157563Y-135938097D01*
X155239641Y-135815258D01*
X155252577Y-135784025D01*
X155869250Y-136400698D01*
X155869250Y-136400697D01*
X155943442Y-136298581D01*
X155943446Y-136298575D01*
X156057780Y-136074184D01*
X156135602Y-135834669D01*
X156175000Y-135585928D01*
X156175000Y-135334071D01*
X156135602Y-135085330D01*
X156057780Y-134845815D01*
X155943442Y-134621416D01*
X155869250Y-134519301D01*
X155869250Y-134519300D01*
X155252577Y-135135973D01*
X155239641Y-135104742D01*
X155157563Y-134981903D01*
X155053097Y-134877437D01*
X154930258Y-134795359D01*
X154899024Y-134782421D01*
X155515698Y-134165748D01*
X155413583Y-134091557D01*
X155189184Y-133977219D01*
X154949669Y-133899397D01*
X154700928Y-133860000D01*
X154449072Y-133860000D01*
X154200330Y-133899397D01*
X153960815Y-133977219D01*
X153736413Y-134091559D01*
X153634301Y-134165747D01*
X153634300Y-134165748D01*
X154250974Y-134782421D01*
X154219742Y-134795359D01*
X154096903Y-134877437D01*
X153992437Y-134981903D01*
X153910359Y-135104742D01*
X153897421Y-135135974D01*
X153280748Y-134519300D01*
X153280747Y-134519301D01*
X153206559Y-134621413D01*
X153092219Y-134845815D01*
X153014397Y-135085330D01*
X152975000Y-135334071D01*
X152975000Y-135585928D01*
X153014397Y-135834669D01*
X153092219Y-136074184D01*
X153206557Y-136298583D01*
X153280748Y-136400697D01*
X153280748Y-136400698D01*
X153897421Y-135784024D01*
X153910359Y-135815258D01*
X153992437Y-135938097D01*
X154096903Y-136042563D01*
X154219742Y-136124641D01*
X154250974Y-136137577D01*
X153634300Y-136754250D01*
X153636598Y-136783449D01*
X153622233Y-136851827D01*
X153573181Y-136901583D01*
X153505016Y-136916921D01*
X153493583Y-136915650D01*
X153391611Y-136899500D01*
X153218389Y-136899500D01*
X153178728Y-136905781D01*
X153047302Y-136926597D01*
X152882552Y-136980128D01*
X152728211Y-137058768D01*
X152672115Y-137099525D01*
X152588072Y-137160586D01*
X152588070Y-137160588D01*
X152588069Y-137160588D01*
X152465588Y-137283069D01*
X152465588Y-137283070D01*
X152465586Y-137283072D01*
X152421859Y-137343256D01*
X152363768Y-137423211D01*
X152285128Y-137577552D01*
X152231597Y-137742302D01*
X152204500Y-137913389D01*
X145330500Y-137913389D01*
X145303402Y-137742299D01*
X145249873Y-137577555D01*
X145171232Y-137423212D01*
X145069414Y-137283072D01*
X144946928Y-137160586D01*
X144806788Y-137058768D01*
X144652445Y-136980127D01*
X144487701Y-136926598D01*
X144487699Y-136926597D01*
X144487698Y-136926597D01*
X144356271Y-136905781D01*
X144316611Y-136899500D01*
X144143389Y-136899500D01*
X144103728Y-136905781D01*
X143972302Y-136926597D01*
X143807552Y-136980128D01*
X143653211Y-137058768D01*
X143597115Y-137099525D01*
X143513072Y-137160586D01*
X143513070Y-137160588D01*
X143513069Y-137160588D01*
X143390588Y-137283069D01*
X143390588Y-137283070D01*
X143390586Y-137283072D01*
X143346859Y-137343256D01*
X143288768Y-137423211D01*
X143210128Y-137577552D01*
X143156597Y-137742302D01*
X143129500Y-137913389D01*
X141400500Y-137913389D01*
X141400500Y-137852494D01*
X141361993Y-137560007D01*
X141285639Y-137275048D01*
X141172743Y-137002493D01*
X141122604Y-136915650D01*
X141025238Y-136747006D01*
X140845647Y-136512959D01*
X140845641Y-136512952D01*
X140637047Y-136304358D01*
X140637040Y-136304352D01*
X140402993Y-136124761D01*
X140147510Y-135977258D01*
X140147500Y-135977254D01*
X139874961Y-135864364D01*
X139874954Y-135864362D01*
X139874952Y-135864361D01*
X139589993Y-135788007D01*
X139541113Y-135781571D01*
X139297513Y-135749500D01*
X139297506Y-135749500D01*
X139002494Y-135749500D01*
X139002486Y-135749500D01*
X138724085Y-135786153D01*
X138710007Y-135788007D01*
X138535861Y-135834669D01*
X138425048Y-135864361D01*
X138425038Y-135864364D01*
X138152499Y-135977254D01*
X138152489Y-135977258D01*
X137897006Y-136124761D01*
X137662959Y-136304352D01*
X137662952Y-136304358D01*
X137454358Y-136512952D01*
X137454352Y-136512959D01*
X137274761Y-136747006D01*
X137127258Y-137002489D01*
X137127254Y-137002499D01*
X137014364Y-137275038D01*
X137014361Y-137275048D01*
X136938008Y-137560004D01*
X136938006Y-137560015D01*
X136899500Y-137852486D01*
X135160854Y-137852486D01*
X135143402Y-137742299D01*
X135089873Y-137577555D01*
X135011232Y-137423212D01*
X134909414Y-137283072D01*
X134856882Y-137230540D01*
X134823397Y-137169217D01*
X134828381Y-137099525D01*
X134870253Y-137043592D01*
X134935717Y-137019175D01*
X134963961Y-137020386D01*
X135214072Y-137060000D01*
X135465928Y-137060000D01*
X135714669Y-137020602D01*
X135954184Y-136942780D01*
X136178575Y-136828446D01*
X136178581Y-136828442D01*
X136280697Y-136754250D01*
X136280698Y-136754250D01*
X135664025Y-136137578D01*
X135695258Y-136124641D01*
X135818097Y-136042563D01*
X135922563Y-135938097D01*
X136004641Y-135815258D01*
X136017578Y-135784025D01*
X136634250Y-136400698D01*
X136634250Y-136400697D01*
X136708442Y-136298581D01*
X136708446Y-136298575D01*
X136822780Y-136074184D01*
X136900602Y-135834669D01*
X136940000Y-135585928D01*
X136940000Y-135334071D01*
X136900602Y-135085330D01*
X136822780Y-134845815D01*
X136708442Y-134621416D01*
X136634250Y-134519301D01*
X136634250Y-134519300D01*
X136017577Y-135135973D01*
X136004641Y-135104742D01*
X135922563Y-134981903D01*
X135818097Y-134877437D01*
X135695258Y-134795359D01*
X135664024Y-134782421D01*
X136280698Y-134165748D01*
X136178583Y-134091557D01*
X135954184Y-133977219D01*
X135714669Y-133899397D01*
X135465928Y-133860000D01*
X135214072Y-133860000D01*
X134965330Y-133899397D01*
X134725815Y-133977219D01*
X134501413Y-134091559D01*
X134399301Y-134165747D01*
X134399300Y-134165748D01*
X135015974Y-134782421D01*
X134984742Y-134795359D01*
X134861903Y-134877437D01*
X134757437Y-134981903D01*
X134675359Y-135104742D01*
X134662421Y-135135974D01*
X134045748Y-134519300D01*
X134045747Y-134519301D01*
X133971559Y-134621413D01*
X133857219Y-134845815D01*
X133779397Y-135085330D01*
X133740000Y-135334071D01*
X133740000Y-135585928D01*
X133779397Y-135834669D01*
X133857219Y-136074184D01*
X133971557Y-136298583D01*
X134045748Y-136400697D01*
X134045748Y-136400698D01*
X134662421Y-135784024D01*
X134675359Y-135815258D01*
X134757437Y-135938097D01*
X134861903Y-136042563D01*
X134984742Y-136124641D01*
X135015974Y-136137577D01*
X134399300Y-136754250D01*
X134401598Y-136783449D01*
X134387233Y-136851827D01*
X134338181Y-136901583D01*
X134270016Y-136916921D01*
X134258583Y-136915650D01*
X134156611Y-136899500D01*
X133983389Y-136899500D01*
X133943728Y-136905781D01*
X133812302Y-136926597D01*
X133647552Y-136980128D01*
X133493211Y-137058768D01*
X133437115Y-137099525D01*
X133353072Y-137160586D01*
X133353070Y-137160588D01*
X133353069Y-137160588D01*
X133230588Y-137283069D01*
X133230588Y-137283070D01*
X133230586Y-137283072D01*
X133186859Y-137343256D01*
X133128768Y-137423211D01*
X133050128Y-137577552D01*
X132996597Y-137742302D01*
X132969500Y-137913389D01*
X126065500Y-137913389D01*
X126038402Y-137742299D01*
X125984873Y-137577555D01*
X125906232Y-137423212D01*
X125804414Y-137283072D01*
X125681928Y-137160586D01*
X125541788Y-137058768D01*
X125387445Y-136980127D01*
X125222701Y-136926598D01*
X125222699Y-136926597D01*
X125222698Y-136926597D01*
X125091271Y-136905781D01*
X125051611Y-136899500D01*
X124878389Y-136899500D01*
X124838728Y-136905781D01*
X124707302Y-136926597D01*
X124542552Y-136980128D01*
X124388211Y-137058768D01*
X124332115Y-137099525D01*
X124248072Y-137160586D01*
X124248070Y-137160588D01*
X124248069Y-137160588D01*
X124125588Y-137283069D01*
X124125588Y-137283070D01*
X124125586Y-137283072D01*
X124081859Y-137343256D01*
X124023768Y-137423211D01*
X123945128Y-137577552D01*
X123891597Y-137742302D01*
X123864500Y-137913389D01*
X122135500Y-137913389D01*
X122135500Y-137852494D01*
X122096993Y-137560007D01*
X122020639Y-137275048D01*
X121907743Y-137002493D01*
X121857604Y-136915650D01*
X121760238Y-136747006D01*
X121580647Y-136512959D01*
X121580641Y-136512952D01*
X121372047Y-136304358D01*
X121372040Y-136304352D01*
X121137993Y-136124761D01*
X120882510Y-135977258D01*
X120882500Y-135977254D01*
X120609961Y-135864364D01*
X120609954Y-135864362D01*
X120609952Y-135864361D01*
X120324993Y-135788007D01*
X120276113Y-135781571D01*
X120032513Y-135749500D01*
X120032506Y-135749500D01*
X119737494Y-135749500D01*
X119737486Y-135749500D01*
X119459085Y-135786153D01*
X119445007Y-135788007D01*
X119270861Y-135834669D01*
X119160048Y-135864361D01*
X119160038Y-135864364D01*
X118887499Y-135977254D01*
X118887489Y-135977258D01*
X118632006Y-136124761D01*
X118397959Y-136304352D01*
X118397952Y-136304358D01*
X118189358Y-136512952D01*
X118189352Y-136512959D01*
X118009761Y-136747006D01*
X117862258Y-137002489D01*
X117862254Y-137002499D01*
X117749364Y-137275038D01*
X117749361Y-137275048D01*
X117673008Y-137560004D01*
X117673006Y-137560015D01*
X117634500Y-137852486D01*
X115895854Y-137852486D01*
X115878402Y-137742299D01*
X115824873Y-137577555D01*
X115746232Y-137423212D01*
X115644414Y-137283072D01*
X115591882Y-137230540D01*
X115558397Y-137169217D01*
X115563381Y-137099525D01*
X115605253Y-137043592D01*
X115670717Y-137019175D01*
X115698961Y-137020386D01*
X115949072Y-137060000D01*
X116200928Y-137060000D01*
X116449669Y-137020602D01*
X116689184Y-136942780D01*
X116913575Y-136828446D01*
X116913581Y-136828442D01*
X117015697Y-136754250D01*
X117015698Y-136754250D01*
X116399025Y-136137578D01*
X116430258Y-136124641D01*
X116553097Y-136042563D01*
X116657563Y-135938097D01*
X116739641Y-135815258D01*
X116752577Y-135784025D01*
X117369250Y-136400698D01*
X117369250Y-136400697D01*
X117443442Y-136298581D01*
X117443446Y-136298575D01*
X117557780Y-136074184D01*
X117635602Y-135834669D01*
X117675000Y-135585928D01*
X117675000Y-135334071D01*
X117635602Y-135085330D01*
X117557780Y-134845815D01*
X117443442Y-134621416D01*
X117369250Y-134519301D01*
X117369250Y-134519300D01*
X116752577Y-135135973D01*
X116739641Y-135104742D01*
X116657563Y-134981903D01*
X116553097Y-134877437D01*
X116430258Y-134795359D01*
X116399024Y-134782421D01*
X117015698Y-134165748D01*
X116913583Y-134091557D01*
X116689184Y-133977219D01*
X116449669Y-133899397D01*
X116200928Y-133860000D01*
X115949072Y-133860000D01*
X115700330Y-133899397D01*
X115460815Y-133977219D01*
X115236413Y-134091559D01*
X115134301Y-134165747D01*
X115134300Y-134165748D01*
X115750974Y-134782421D01*
X115719742Y-134795359D01*
X115596903Y-134877437D01*
X115492437Y-134981903D01*
X115410359Y-135104742D01*
X115397421Y-135135974D01*
X114780748Y-134519300D01*
X114780747Y-134519301D01*
X114706559Y-134621413D01*
X114592219Y-134845815D01*
X114514397Y-135085330D01*
X114475000Y-135334071D01*
X114475000Y-135585928D01*
X114514397Y-135834669D01*
X114592219Y-136074184D01*
X114706557Y-136298583D01*
X114780748Y-136400697D01*
X114780748Y-136400698D01*
X115397421Y-135784024D01*
X115410359Y-135815258D01*
X115492437Y-135938097D01*
X115596903Y-136042563D01*
X115719742Y-136124641D01*
X115750974Y-136137577D01*
X115134300Y-136754250D01*
X115136598Y-136783449D01*
X115122233Y-136851827D01*
X115073181Y-136901583D01*
X115005016Y-136916921D01*
X114993583Y-136915650D01*
X114891611Y-136899500D01*
X114718389Y-136899500D01*
X114678728Y-136905781D01*
X114547302Y-136926597D01*
X114382552Y-136980128D01*
X114228211Y-137058768D01*
X114172115Y-137099525D01*
X114088072Y-137160586D01*
X114088070Y-137160588D01*
X114088069Y-137160588D01*
X113965588Y-137283069D01*
X113965588Y-137283070D01*
X113965586Y-137283072D01*
X113921859Y-137343256D01*
X113863768Y-137423211D01*
X113785128Y-137577552D01*
X113731597Y-137742302D01*
X113704500Y-137913389D01*
X110550500Y-137913389D01*
X110550500Y-132794038D01*
X120824500Y-132794038D01*
X120824500Y-133045961D01*
X120863910Y-133294785D01*
X120941760Y-133534383D01*
X121056132Y-133758848D01*
X121204201Y-133962649D01*
X121204205Y-133962654D01*
X121382345Y-134140794D01*
X121382350Y-134140798D01*
X121560117Y-134269952D01*
X121586155Y-134288870D01*
X121729184Y-134361747D01*
X121810616Y-134403239D01*
X121810618Y-134403239D01*
X121810621Y-134403241D01*
X122050215Y-134481090D01*
X122299038Y-134520500D01*
X122299039Y-134520500D01*
X122550961Y-134520500D01*
X122550962Y-134520500D01*
X122799785Y-134481090D01*
X123039379Y-134403241D01*
X123263845Y-134288870D01*
X123467656Y-134140793D01*
X123645793Y-133962656D01*
X123793870Y-133758845D01*
X123908241Y-133534379D01*
X123986090Y-133294785D01*
X124025500Y-133045962D01*
X124025500Y-132794038D01*
X140089500Y-132794038D01*
X140089500Y-133045961D01*
X140128910Y-133294785D01*
X140206760Y-133534383D01*
X140321132Y-133758848D01*
X140469201Y-133962649D01*
X140469205Y-133962654D01*
X140647345Y-134140794D01*
X140647350Y-134140798D01*
X140825117Y-134269952D01*
X140851155Y-134288870D01*
X140994184Y-134361747D01*
X141075616Y-134403239D01*
X141075618Y-134403239D01*
X141075621Y-134403241D01*
X141315215Y-134481090D01*
X141564038Y-134520500D01*
X141564039Y-134520500D01*
X141815961Y-134520500D01*
X141815962Y-134520500D01*
X142064785Y-134481090D01*
X142304379Y-134403241D01*
X142528845Y-134288870D01*
X142732656Y-134140793D01*
X142910793Y-133962656D01*
X143058870Y-133758845D01*
X143173241Y-133534379D01*
X143251090Y-133294785D01*
X143290500Y-133045962D01*
X143290500Y-132794038D01*
X159324500Y-132794038D01*
X159324500Y-133045961D01*
X159363910Y-133294785D01*
X159441760Y-133534383D01*
X159556132Y-133758848D01*
X159704201Y-133962649D01*
X159704205Y-133962654D01*
X159882345Y-134140794D01*
X159882350Y-134140798D01*
X160060117Y-134269952D01*
X160086155Y-134288870D01*
X160229184Y-134361747D01*
X160310616Y-134403239D01*
X160310618Y-134403239D01*
X160310621Y-134403241D01*
X160550215Y-134481090D01*
X160799038Y-134520500D01*
X160799039Y-134520500D01*
X161050961Y-134520500D01*
X161050962Y-134520500D01*
X161299785Y-134481090D01*
X161539379Y-134403241D01*
X161763845Y-134288870D01*
X161967656Y-134140793D01*
X162145793Y-133962656D01*
X162293870Y-133758845D01*
X162408241Y-133534379D01*
X162486090Y-133294785D01*
X162525500Y-133045962D01*
X162525500Y-132794038D01*
X162486090Y-132545215D01*
X162408241Y-132305621D01*
X162408239Y-132305618D01*
X162408239Y-132305616D01*
X162366747Y-132224184D01*
X162293870Y-132081155D01*
X162274952Y-132055117D01*
X162145798Y-131877350D01*
X162145794Y-131877345D01*
X161967654Y-131699205D01*
X161967649Y-131699201D01*
X161763848Y-131551132D01*
X161763847Y-131551131D01*
X161763845Y-131551130D01*
X161693747Y-131515413D01*
X161539383Y-131436760D01*
X161299785Y-131358910D01*
X161050962Y-131319500D01*
X160799038Y-131319500D01*
X160674626Y-131339205D01*
X160550214Y-131358910D01*
X160310616Y-131436760D01*
X160086151Y-131551132D01*
X159882350Y-131699201D01*
X159882345Y-131699205D01*
X159704205Y-131877345D01*
X159704201Y-131877350D01*
X159556132Y-132081151D01*
X159441760Y-132305616D01*
X159363910Y-132545214D01*
X159324500Y-132794038D01*
X143290500Y-132794038D01*
X143251090Y-132545215D01*
X143173241Y-132305621D01*
X143173239Y-132305618D01*
X143173239Y-132305616D01*
X143131747Y-132224184D01*
X143058870Y-132081155D01*
X143039952Y-132055117D01*
X142910798Y-131877350D01*
X142910794Y-131877345D01*
X142732654Y-131699205D01*
X142732649Y-131699201D01*
X142528848Y-131551132D01*
X142528847Y-131551131D01*
X142528845Y-131551130D01*
X142458747Y-131515413D01*
X142304383Y-131436760D01*
X142064785Y-131358910D01*
X141815962Y-131319500D01*
X141564038Y-131319500D01*
X141439626Y-131339205D01*
X141315214Y-131358910D01*
X141075616Y-131436760D01*
X140851151Y-131551132D01*
X140647350Y-131699201D01*
X140647345Y-131699205D01*
X140469205Y-131877345D01*
X140469201Y-131877350D01*
X140321132Y-132081151D01*
X140206760Y-132305616D01*
X140128910Y-132545214D01*
X140089500Y-132794038D01*
X124025500Y-132794038D01*
X123986090Y-132545215D01*
X123908241Y-132305621D01*
X123908239Y-132305618D01*
X123908239Y-132305616D01*
X123866747Y-132224184D01*
X123793870Y-132081155D01*
X123774952Y-132055117D01*
X123645798Y-131877350D01*
X123645794Y-131877345D01*
X123467654Y-131699205D01*
X123467649Y-131699201D01*
X123263848Y-131551132D01*
X123263847Y-131551131D01*
X123263845Y-131551130D01*
X123193747Y-131515413D01*
X123039383Y-131436760D01*
X122799785Y-131358910D01*
X122550962Y-131319500D01*
X122299038Y-131319500D01*
X122174626Y-131339205D01*
X122050214Y-131358910D01*
X121810616Y-131436760D01*
X121586151Y-131551132D01*
X121382350Y-131699201D01*
X121382345Y-131699205D01*
X121204205Y-131877345D01*
X121204201Y-131877350D01*
X121056132Y-132081151D01*
X120941760Y-132305616D01*
X120863910Y-132545214D01*
X120824500Y-132794038D01*
X110550500Y-132794038D01*
X110550500Y-121419182D01*
X162061573Y-121419182D01*
X162061573Y-121640817D01*
X162096241Y-121859707D01*
X162164729Y-122070488D01*
X162197600Y-122135000D01*
X162265343Y-122267953D01*
X162395611Y-122447251D01*
X162552322Y-122603962D01*
X162731620Y-122734230D01*
X162824917Y-122781767D01*
X162929084Y-122834843D01*
X162929086Y-122834843D01*
X162929089Y-122834845D01*
X163042069Y-122871554D01*
X163139865Y-122903331D01*
X163358756Y-122938000D01*
X163358761Y-122938000D01*
X163580390Y-122938000D01*
X163799280Y-122903331D01*
X164010057Y-122834845D01*
X164207526Y-122734230D01*
X164386824Y-122603962D01*
X164427879Y-122562906D01*
X164489200Y-122529422D01*
X164558891Y-122534406D01*
X164614825Y-122576276D01*
X164631741Y-122607255D01*
X164658718Y-122679586D01*
X164658722Y-122679593D01*
X164744882Y-122794687D01*
X164744885Y-122794690D01*
X164859979Y-122880850D01*
X164859986Y-122880854D01*
X164994693Y-122931096D01*
X164994700Y-122931098D01*
X165054228Y-122937499D01*
X165054245Y-122937500D01*
X165759573Y-122937500D01*
X165759573Y-122084256D01*
X165776052Y-122093771D01*
X165929923Y-122135000D01*
X166089223Y-122135000D01*
X166243094Y-122093771D01*
X166259573Y-122084256D01*
X166259573Y-122937500D01*
X166964901Y-122937500D01*
X166964917Y-122937499D01*
X167024445Y-122931098D01*
X167024452Y-122931096D01*
X167159159Y-122880854D01*
X167159166Y-122880850D01*
X167274260Y-122794690D01*
X167274263Y-122794687D01*
X167360423Y-122679593D01*
X167360427Y-122679586D01*
X167410669Y-122544879D01*
X167410671Y-122544872D01*
X167417072Y-122485344D01*
X167417073Y-122485327D01*
X167417073Y-121780000D01*
X166563830Y-121780000D01*
X166573344Y-121763521D01*
X166614573Y-121609650D01*
X166614573Y-121450350D01*
X166573344Y-121296479D01*
X166563830Y-121280000D01*
X167417073Y-121280000D01*
X167417073Y-120574672D01*
X167417072Y-120574655D01*
X167410671Y-120515127D01*
X167410669Y-120515120D01*
X167360427Y-120380413D01*
X167360423Y-120380406D01*
X167274263Y-120265312D01*
X167274260Y-120265309D01*
X167159166Y-120179149D01*
X167159159Y-120179145D01*
X167024452Y-120128903D01*
X167024445Y-120128901D01*
X166964917Y-120122500D01*
X166259573Y-120122500D01*
X166259573Y-120975743D01*
X166243094Y-120966229D01*
X166089223Y-120925000D01*
X165929923Y-120925000D01*
X165776052Y-120966229D01*
X165759573Y-120975743D01*
X165759573Y-120122500D01*
X165054228Y-120122500D01*
X164994700Y-120128901D01*
X164994693Y-120128903D01*
X164859986Y-120179145D01*
X164859979Y-120179149D01*
X164744885Y-120265309D01*
X164744882Y-120265312D01*
X164658722Y-120380406D01*
X164658718Y-120380413D01*
X164631741Y-120452744D01*
X164589870Y-120508678D01*
X164524405Y-120533095D01*
X164456132Y-120518243D01*
X164427878Y-120497092D01*
X164386826Y-120456040D01*
X164386824Y-120456038D01*
X164207526Y-120325770D01*
X164010061Y-120225156D01*
X163799280Y-120156668D01*
X163580390Y-120122000D01*
X163580385Y-120122000D01*
X163358761Y-120122000D01*
X163358756Y-120122000D01*
X163139865Y-120156668D01*
X162929084Y-120225156D01*
X162731619Y-120325770D01*
X162629323Y-120400092D01*
X162552322Y-120456038D01*
X162552320Y-120456040D01*
X162552319Y-120456040D01*
X162395613Y-120612746D01*
X162395613Y-120612747D01*
X162395611Y-120612749D01*
X162339665Y-120689750D01*
X162265343Y-120792046D01*
X162164729Y-120989511D01*
X162096241Y-121200292D01*
X162061573Y-121419182D01*
X110550500Y-121419182D01*
X110550500Y-107175513D01*
X116119500Y-107175513D01*
X116119500Y-107364486D01*
X116149059Y-107551118D01*
X116207454Y-107730836D01*
X116257954Y-107829946D01*
X116293240Y-107899199D01*
X116404310Y-108052073D01*
X116537927Y-108185690D01*
X116690801Y-108296760D01*
X116770347Y-108337290D01*
X116859163Y-108382545D01*
X116859165Y-108382545D01*
X116859168Y-108382547D01*
X116955497Y-108413846D01*
X117038881Y-108440940D01*
X117225514Y-108470500D01*
X117225519Y-108470500D01*
X117414486Y-108470500D01*
X117601118Y-108440940D01*
X117780832Y-108382547D01*
X117949199Y-108296760D01*
X118102073Y-108185690D01*
X118235690Y-108052073D01*
X118346760Y-107899199D01*
X118432547Y-107730832D01*
X118490940Y-107551118D01*
X118506721Y-107451481D01*
X118520500Y-107364486D01*
X118520500Y-107175513D01*
X119269500Y-107175513D01*
X119269500Y-107364486D01*
X119299059Y-107551118D01*
X119357454Y-107730836D01*
X119407954Y-107829946D01*
X119443240Y-107899199D01*
X119554310Y-108052073D01*
X119687927Y-108185690D01*
X119840801Y-108296760D01*
X119920347Y-108337290D01*
X120009163Y-108382545D01*
X120009165Y-108382545D01*
X120009168Y-108382547D01*
X120105497Y-108413846D01*
X120188881Y-108440940D01*
X120375514Y-108470500D01*
X120375519Y-108470500D01*
X120564486Y-108470500D01*
X120751118Y-108440940D01*
X120930832Y-108382547D01*
X121099199Y-108296760D01*
X121252073Y-108185690D01*
X121385690Y-108052073D01*
X121496760Y-107899199D01*
X121582547Y-107730832D01*
X121640940Y-107551118D01*
X121656721Y-107451481D01*
X121670500Y-107364486D01*
X121670500Y-107175513D01*
X121640940Y-106988881D01*
X121582545Y-106809163D01*
X121537290Y-106720347D01*
X121496760Y-106640801D01*
X121385690Y-106487927D01*
X121252073Y-106354310D01*
X121099199Y-106243240D01*
X120930836Y-106157454D01*
X120751118Y-106099059D01*
X120564486Y-106069500D01*
X120564481Y-106069500D01*
X120375519Y-106069500D01*
X120375514Y-106069500D01*
X120188881Y-106099059D01*
X120009163Y-106157454D01*
X119840800Y-106243240D01*
X119754104Y-106306229D01*
X119687927Y-106354310D01*
X119687925Y-106354312D01*
X119687924Y-106354312D01*
X119554312Y-106487924D01*
X119554312Y-106487925D01*
X119554310Y-106487927D01*
X119516264Y-106540293D01*
X119443240Y-106640800D01*
X119357454Y-106809163D01*
X119299059Y-106988881D01*
X119269500Y-107175513D01*
X118520500Y-107175513D01*
X118490940Y-106988881D01*
X118432545Y-106809163D01*
X118387290Y-106720347D01*
X118346760Y-106640801D01*
X118235690Y-106487927D01*
X118102073Y-106354310D01*
X117949199Y-106243240D01*
X117780836Y-106157454D01*
X117601118Y-106099059D01*
X117414486Y-106069500D01*
X117414481Y-106069500D01*
X117225519Y-106069500D01*
X117225514Y-106069500D01*
X117038881Y-106099059D01*
X116859163Y-106157454D01*
X116690800Y-106243240D01*
X116604104Y-106306229D01*
X116537927Y-106354310D01*
X116537925Y-106354312D01*
X116537924Y-106354312D01*
X116404312Y-106487924D01*
X116404312Y-106487925D01*
X116404310Y-106487927D01*
X116366264Y-106540293D01*
X116293240Y-106640800D01*
X116207454Y-106809163D01*
X116149059Y-106988881D01*
X116119500Y-107175513D01*
X110550500Y-107175513D01*
X110550500Y-101549500D01*
X110570185Y-101482461D01*
X110622989Y-101436706D01*
X110674500Y-101425500D01*
X119028388Y-101425500D01*
X119095427Y-101445185D01*
G37*
%TD.AperFunction*%
%TA.AperFunction,Conductor*%
G36*
X121633813Y-101445185D02*
G01*
X121679568Y-101497989D01*
X121689512Y-101567147D01*
X121660487Y-101630703D01*
X121605093Y-101667430D01*
X121586588Y-101673443D01*
X121586585Y-101673444D01*
X121397179Y-101769951D01*
X121225213Y-101894890D01*
X121074890Y-102045213D01*
X120949949Y-102217182D01*
X120945202Y-102226499D01*
X120897227Y-102277293D01*
X120829405Y-102294087D01*
X120763271Y-102271548D01*
X120724234Y-102226495D01*
X120719626Y-102217452D01*
X120680270Y-102163282D01*
X120680269Y-102163282D01*
X120047962Y-102795590D01*
X120030925Y-102732007D01*
X119965099Y-102617993D01*
X119872007Y-102524901D01*
X119757993Y-102459075D01*
X119694409Y-102442037D01*
X120326716Y-101809728D01*
X120272550Y-101770375D01*
X120083217Y-101673904D01*
X120063294Y-101667431D01*
X120005619Y-101627994D01*
X119978420Y-101563635D01*
X119990335Y-101494789D01*
X120037579Y-101443313D01*
X120101612Y-101425500D01*
X121566774Y-101425500D01*
X121633813Y-101445185D01*
G37*
%TD.AperFunction*%
%TD*%
M02*
