M48
; DRILL file {KiCad 9.0.6} date 2026-06-30T16:50:21+0200
; FORMAT={-:-/ absolute / metric / decimal}
; #@! TF.CreationDate,2026-06-30T16:50:21+02:00
; #@! TF.GenerationSoftware,Kicad,Pcbnew,9.0.6
; #@! TF.FileFunction,Plated,1,2,PTH
FMAT,2
METRIC
; #@! TA.AperFunction,Plated,PTH,ViaDrill
T1C0.300
; #@! TA.AperFunction,Plated,PTH,ComponentDrill
T2C0.700
; #@! TA.AperFunction,Plated,PTH,ComponentDrill
T3C0.889
; #@! TA.AperFunction,Plated,PTH,ComponentDrill
T4C1.000
; #@! TA.AperFunction,Plated,PTH,ComponentDrill
T5C1.210
; #@! TA.AperFunction,Plated,PTH,ComponentDrill
T6C1.500
%
G90
G05
T1
X127.87Y-114.11
T2
X117.32Y-107.27
X117.32Y-112.35
X120.47Y-107.27
X120.47Y-112.35
X151.83Y-111.569
X151.83Y-114.108
X151.83Y-116.65
X156.91Y-111.569
X156.91Y-114.108
X156.91Y-116.65
T3
X132.53Y-103.948
X132.53Y-106.489
X132.53Y-109.028
X132.53Y-111.569
X132.53Y-114.108
X132.53Y-116.648
X132.53Y-119.188
X147.77Y-103.948
X147.77Y-106.489
X147.77Y-109.028
X147.77Y-111.569
X147.77Y-114.108
X147.77Y-116.648
X147.77Y-119.188
T4
X119.565Y-102.925
X122.105Y-102.925
X124.645Y-102.925
X127.185Y-102.925
T5
X163.42Y-114.11
X163.47Y-106.87
X163.47Y-121.53
X165.96Y-114.11
X166.01Y-106.87
X166.01Y-121.53
T6
X116.075Y-135.46
X116.075Y-154.8
X122.425Y-132.92
X122.425Y-152.26
X135.325Y-154.8
X135.34Y-135.46
X141.675Y-152.26
X141.69Y-132.92
X154.575Y-135.46
X154.575Y-154.8
X160.925Y-132.92
X160.925Y-152.26
M30
